<svg width="50" height="31" viewBox="0 0 50 31" fill="none" xmlns="http://www.w3.org/2000/svg">
<path id="Vector" d="M5.05789 2.10267H1.47567C1.24108 2.10267 1.0161 2.00948 0.850229 1.84361C0.684353 1.67773 0.591166 1.45275 0.591166 1.21817C0.591166 0.983583 0.684353 0.758603 0.850229 0.592728C1.0161 0.426852 1.24108 0.333665 1.47567 0.333665H5.05789C5.29247 0.333665 5.51744 0.426852 5.68332 0.592728C5.84919 0.758603 5.94239 0.983583 5.94239 1.21817C5.94239 1.45275 5.84919 1.67773 5.68332 1.84361C5.51744 2.00948 5.29247 2.10267 5.05789 2.10267ZM5.94239 5.30897C5.94239 5.07439 5.84919 4.84941 5.68332 4.68353C5.51744 4.51765 5.29247 4.42447 5.05789 4.42447H1.47567C1.24108 4.42447 1.0161 4.51765 0.850229 4.68353C0.684353 4.84941 0.591166 5.07439 0.591166 5.30897C0.591166 5.54355 0.684353 5.76853 0.850229 5.93441C1.0161 6.10028 1.24108 6.19347 1.47567 6.19347H5.05789C5.17589 6.19642 5.29329 6.17573 5.40316 6.1326C5.51304 6.08948 5.61317 6.02478 5.69766 5.94235C5.78215 5.85993 5.84929 5.76142 5.89512 5.65264C5.94094 5.54386 5.96453 5.42701 5.9645 5.30897H5.94239ZM5.94239 9.39977C5.94239 9.28362 5.91951 9.16861 5.87506 9.0613C5.83061 8.95399 5.76545 8.85648 5.68332 8.77435C5.60118 8.69222 5.50368 8.62707 5.39637 8.58262C5.28905 8.53817 5.17404 8.51529 5.05789 8.51529H1.47567C1.24108 8.51529 1.0161 8.60847 0.850229 8.77435C0.684353 8.94023 0.591166 9.16519 0.591166 9.39977C0.591166 9.63436 0.684353 9.85934 0.850229 10.0252C1.0161 10.1911 1.24108 10.2843 1.47567 10.2843H5.05789C5.1797 10.2875 5.30087 10.2655 5.41378 10.2196C5.5267 10.1738 5.62892 10.1051 5.71405 10.0179C5.79917 9.93074 5.86535 9.82689 5.90845 9.7129C5.95155 9.59892 5.97063 9.47726 5.9645 9.35555L5.94239 9.39977ZM5.94239 13.4906C5.94239 13.256 5.84919 13.031 5.68332 12.8652C5.51744 12.6993 5.29247 12.6061 5.05789 12.6061H1.47567C1.24108 12.6061 1.0161 12.6993 0.850229 12.8652C0.684353 13.031 0.591166 13.256 0.591166 13.4906C0.591166 13.7252 0.684353 13.9501 0.850229 14.116C1.0161 14.2819 1.24108 14.3751 1.47567 14.3751H5.05789C5.17589 14.378 5.29329 14.3573 5.40316 14.3142C5.51304 14.2711 5.61317 14.2064 5.69766 14.124C5.78215 14.0415 5.84929 13.943 5.89512 13.8343C5.94094 13.7255 5.96453 13.6086 5.9645 13.4906H5.94239ZM5.94239 17.5814C5.94239 17.3468 5.84919 17.1218 5.68332 16.956C5.51744 16.7901 5.29247 16.6969 5.05789 16.6969H1.47567C1.35196 16.683 1.22671 16.6954 1.10811 16.7332C0.989514 16.771 0.880244 16.8335 0.787437 16.9164C0.69463 16.9994 0.620382 17.101 0.569547 17.2147C0.518711 17.3283 0.492432 17.4514 0.492432 17.5759C0.492432 17.7003 0.518711 17.8234 0.569547 17.9371C0.620382 18.0507 0.69463 18.1523 0.787437 18.2353C0.880244 18.3182 0.989514 18.3807 1.10811 18.4185C1.22671 18.4564 1.35196 18.4687 1.47567 18.4548H5.05789C5.17535 18.4593 5.2925 18.44 5.40233 18.3981C5.51216 18.3562 5.6124 18.2926 5.69706 18.211C5.78171 18.1295 5.84903 18.0317 5.89498 17.9235C5.94094 17.8153 5.96458 17.6989 5.9645 17.5814H5.94239ZM5.94239 21.6611C5.9424 21.5455 5.91944 21.431 5.87486 21.3243C5.83027 21.2176 5.76494 21.1208 5.68266 21.0396C5.60038 20.9583 5.50278 20.8942 5.39553 20.851C5.28828 20.8078 5.17351 20.7862 5.05789 20.7877H1.47567C1.35196 20.7738 1.22671 20.7862 1.10811 20.824C0.989514 20.8619 0.880244 20.9243 0.787437 21.0072C0.69463 21.0902 0.620382 21.1918 0.569547 21.3055C0.518711 21.4191 0.492432 21.5422 0.492432 21.6667C0.492432 21.7912 0.518711 21.9142 0.569547 22.0279C0.620382 22.1415 0.69463 22.2431 0.787437 22.3261C0.880244 22.4091 0.989514 22.4715 1.10811 22.5093C1.22671 22.5472 1.35196 22.5595 1.47567 22.5456H5.05789C5.17589 22.5486 5.29329 22.5279 5.40316 22.4848C5.51304 22.4416 5.61317 22.377 5.69766 22.2945C5.78215 22.2121 5.84929 22.1136 5.89512 22.0048C5.94094 21.896 5.96453 21.7792 5.9645 21.6611H5.94239ZM5.94239 25.752C5.94239 25.6358 5.91951 25.5208 5.87506 25.4135C5.83061 25.3062 5.76545 25.2086 5.68332 25.1265C5.60118 25.0444 5.50368 24.9792 5.39637 24.9348C5.28905 24.8903 5.17404 24.8675 5.05789 24.8675H1.47567C1.24108 24.8675 1.0161 24.9606 0.850229 25.1265C0.684353 25.2924 0.591166 25.5174 0.591166 25.752C0.591166 25.9865 0.684353 26.2115 0.850229 26.3774C1.0161 26.5433 1.24108 26.6365 1.47567 26.6365H5.05789C5.17589 26.6394 5.29329 26.6187 5.40316 26.5756C5.51304 26.5324 5.61317 26.4678 5.69766 26.3853C5.78215 26.3029 5.84929 26.2044 5.89512 26.0956C5.94094 25.9868 5.96453 25.87 5.9645 25.752H5.94239ZM5.94239 29.8428C5.94239 29.6082 5.84919 29.3832 5.68332 29.2173C5.51744 29.0514 5.29247 28.9583 5.05789 28.9583H1.47567C1.24108 28.9583 1.0161 29.0514 0.850229 29.2173C0.684353 29.3832 0.591166 29.6082 0.591166 29.8428C0.591166 30.0773 0.684353 30.3023 0.850229 30.4682C1.0161 30.6341 1.24108 30.7273 1.47567 30.7273H5.05789C5.17589 30.7302 5.29329 30.7095 5.40316 30.6664C5.51304 30.6233 5.61317 30.5586 5.69766 30.4761C5.78215 30.3937 5.84929 30.2952 5.89512 30.1864C5.94094 30.0776 5.96453 29.9608 5.9645 29.8428H5.94239ZM19.3204 1.21817C19.3204 0.983583 19.2272 0.758603 19.0614 0.592728C18.8955 0.426852 18.6705 0.333665 18.4359 0.333665H9.04919C8.8146 0.333665 8.58962 0.426852 8.42375 0.592728C8.25787 0.758603 8.16468 0.983583 8.16468 1.21817C8.16468 1.45275 8.25787 1.67773 8.42375 1.84361C8.58962 2.00948 8.8146 2.10267 9.04919 2.10267H18.4359C18.6705 2.10267 18.8955 2.00948 19.0614 1.84361C19.2272 1.67773 19.3204 1.45275 19.3204 1.21817ZM19.3204 5.30897C19.3204 5.07439 19.2272 4.84941 19.0614 4.68353C18.8955 4.51765 18.6705 4.42447 18.4359 4.42447H9.04919C8.8146 4.42447 8.58962 4.51765 8.42375 4.68353C8.25787 4.84941 8.16468 5.07439 8.16468 5.30897C8.16468 5.54355 8.25787 5.76853 8.42375 5.93441C8.58962 6.10028 8.8146 6.19347 9.04919 6.19347H18.4359C18.6705 6.19347 18.8955 6.10028 19.0614 5.93441C19.2272 5.76853 19.3204 5.54355 19.3204 5.30897ZM19.3204 9.39977C19.3204 9.28362 19.2975 9.16861 19.2531 9.0613C19.2086 8.95399 19.1435 8.85648 19.0614 8.77435C18.9792 8.69222 18.8817 8.62707 18.7744 8.58262C18.6671 8.53817 18.5521 8.51529 18.4359 8.51529H9.04919C8.8146 8.51529 8.58962 8.60847 8.42375 8.77435C8.25787 8.94023 8.16468 9.16519 8.16468 9.39977C8.16468 9.63436 8.25787 9.85934 8.42375 10.0252C8.58962 10.1911 8.8146 10.2843 9.04919 10.2843H18.4359C18.5559 10.2844 18.6746 10.2602 18.7849 10.213C18.8952 10.1658 18.9948 10.0967 19.0775 10.0098C19.1603 9.9229 19.2245 9.82011 19.2662 9.70764C19.308 9.59517 19.3264 9.47538 19.3204 9.35555V9.39977ZM19.3204 13.4906C19.3204 13.256 19.2272 13.031 19.0614 12.8652C18.8955 12.6993 18.6705 12.6061 18.4359 12.6061H9.04919C8.8146 12.6061 8.58962 12.6993 8.42375 12.8652C8.25787 13.031 8.16468 13.256 8.16468 13.4906C8.16468 13.7252 8.25787 13.9501 8.42375 14.116C8.58962 14.2819 8.8146 14.3751 9.04919 14.3751H18.4359C18.6705 14.3751 18.8955 14.2819 19.0614 14.116C19.2272 13.9501 19.3204 13.7252 19.3204 13.4906ZM19.3204 17.5814C19.3204 17.3468 19.2272 17.1218 19.0614 16.956C18.8955 16.7901 18.6705 16.6969 18.4359 16.6969H9.04919C8.92548 16.683 8.80023 16.6954 8.68164 16.7332C8.56304 16.771 8.45376 16.8335 8.36096 16.9164C8.26815 16.9994 8.1939 17.101 8.14306 17.2147C8.09223 17.3283 8.06595 17.4514 8.06595 17.5759C8.06595 17.7003 8.09223 17.8234 8.14306 17.9371C8.1939 18.0507 8.26815 18.1523 8.36096 18.2353C8.45376 18.3182 8.56304 18.3807 8.68164 18.4185C8.80023 18.4564 8.92548 18.4687 9.04919 18.4548H18.4359C18.5516 18.4563 18.6663 18.4348 18.7736 18.3916C18.8808 18.3483 18.9784 18.2842 19.0607 18.203C19.143 18.1217 19.2083 18.0249 19.2529 17.9182C19.2975 17.8115 19.3204 17.697 19.3204 17.5814ZM30.5646 21.6611C30.5646 21.5455 30.5417 21.431 30.4971 21.3243C30.4525 21.2176 30.3872 21.1208 30.3049 21.0396C30.2226 20.9583 30.125 20.8942 30.0178 20.851C29.9105 20.8078 29.7957 20.7862 29.6801 20.7877H20.3376C20.2139 20.7738 20.0886 20.7862 19.9701 20.824C19.8515 20.8619 19.7422 20.9243 19.6494 21.0072C19.5566 21.0902 19.4823 21.1918 19.4315 21.3055C19.3806 21.4191 19.3544 21.5422 19.3544 21.6667C19.3544 21.7912 19.3806 21.9142 19.4315 22.0279C19.4823 22.1415 19.5566 22.2431 19.6494 22.3261C19.7422 22.4091 19.8515 22.4715 19.9701 22.5093C20.0886 22.5472 20.2139 22.5595 20.3376 22.5456H29.7243C29.9521 22.537 30.1675 22.4397 30.3245 22.2744C30.4815 22.1091 30.5677 21.8891 30.5646 21.6611ZM30.5646 25.752C30.5646 25.6358 30.5417 25.5208 30.4973 25.4135C30.4528 25.3062 30.3877 25.2086 30.3056 25.1265C30.2234 25.0444 30.1259 24.9792 30.0186 24.9348C29.9113 24.8903 29.7963 24.8675 29.6801 24.8675H20.3376C20.103 24.8675 19.878 24.9606 19.7122 25.1265C19.5463 25.2924 19.4531 25.5174 19.4531 25.752C19.4531 25.9865 19.5463 26.2115 19.7122 26.3774C19.878 26.5433 20.103 26.6365 20.3376 26.6365H29.7243C29.9512 26.6251 30.1649 26.5269 30.3214 26.3623C30.4778 26.1976 30.5649 25.9791 30.5646 25.752ZM30.5646 29.8428C30.5646 29.6082 30.4714 29.3832 30.3056 29.2173C30.1397 29.0514 29.9147 28.9583 29.6801 28.9583H20.3376C20.103 28.9583 19.878 29.0514 19.7122 29.2173C19.5463 29.3832 19.4531 29.6082 19.4531 29.8428C19.4531 30.0773 19.5463 30.3023 19.7122 30.4682C19.878 30.6341 20.103 30.7273 20.3376 30.7273H29.7243C29.9512 30.7159 30.1649 30.6177 30.3214 30.4531C30.4778 30.2884 30.5649 30.0699 30.5646 29.8428ZM23.4555 1.21817C23.4291 0.965266 23.31 0.73109 23.1212 0.560859C22.9323 0.390628 22.687 0.296415 22.4328 0.296415C22.1785 0.296415 21.9332 0.390628 21.7444 0.560859C21.5555 0.73109 21.4364 0.965266 21.4101 1.21817C21.3951 1.3614 21.4105 1.50617 21.4551 1.6431C21.4997 1.78003 21.5726 1.90606 21.669 2.01304C21.7654 2.12001 21.8832 2.20554 22.0148 2.26409C22.1463 2.32263 22.2887 2.35287 22.4328 2.35287C22.5768 2.35287 22.7192 2.32263 22.8507 2.26409C22.9823 2.20554 23.1001 2.12001 23.1965 2.01304C23.293 1.90606 23.3658 1.78003 23.4104 1.6431C23.455 1.50617 23.4704 1.3614 23.4555 1.21817ZM26.518 1.21817C26.4917 0.965266 26.3726 0.73109 26.1837 0.560859C25.9949 0.390628 25.7496 0.296415 25.4953 0.296415C25.2411 0.296415 24.9958 0.390628 24.8069 0.560859C24.6181 0.73109 24.499 0.965266 24.4726 1.21817C24.4577 1.3614 24.4731 1.50617 24.5177 1.6431C24.5623 1.78003 24.6351 1.90606 24.7315 2.01304C24.828 2.12001 24.9458 2.20554 25.0773 2.26409C25.2089 2.32263 25.3513 2.35287 25.4953 2.35287C25.6393 2.35287 25.7818 2.32263 25.9133 2.26409C26.0449 2.20554 26.1627 2.12001 26.2591 2.01304C26.3555 1.90606 26.4284 1.78003 26.473 1.6431C26.5176 1.50617 26.5329 1.3614 26.518 1.21817ZM29.5917 1.21817C29.5917 1.0148 29.5314 0.816007 29.4184 0.646916C29.3054 0.477824 29.1448 0.346031 28.9569 0.268207C28.769 0.190383 28.5623 0.170026 28.3628 0.2097C28.1634 0.249375 27.9802 0.347299 27.8364 0.4911C27.6926 0.6349 27.5946 0.81812 27.555 1.01758C27.5153 1.21703 27.5357 1.42377 27.6135 1.61165C27.6913 1.79954 27.8231 1.96013 27.9922 2.07311C28.1613 2.18609 28.3601 2.24641 28.5634 2.24641C28.8361 2.24641 29.0977 2.13806 29.2905 1.94523C29.4833 1.7524 29.5917 1.49087 29.5917 1.21817ZM32.6542 1.21817C32.6279 0.965266 32.5088 0.73109 32.3199 0.560859C32.1311 0.390628 31.8858 0.296415 31.6315 0.296415C31.3773 0.296415 31.132 0.390628 30.9431 0.560859C30.7543 0.73109 30.6352 0.965266 30.6088 1.21817C30.5939 1.3614 30.6093 1.50617 30.6539 1.6431C30.6985 1.78003 30.7713 1.90606 30.8678 2.01304C30.9642 2.12001 31.082 2.20554 31.2136 2.26409C31.3451 2.32263 31.4875 2.35287 31.6315 2.35287C31.7755 2.35287 31.918 2.32263 32.0495 2.26409C32.1811 2.20554 32.2989 2.12001 32.3953 2.01304C32.4917 1.90606 32.5646 1.78003 32.6092 1.6431C32.6538 1.50617 32.6692 1.3614 32.6542 1.21817ZM35.7279 1.21817C35.7279 1.0148 35.6676 0.816007 35.5546 0.646916C35.4416 0.477824 35.281 0.346031 35.0931 0.268207C34.9052 0.190383 34.6985 0.170026 34.499 0.2097C34.2996 0.249375 34.1164 0.347299 33.9726 0.4911C33.8288 0.6349 33.7309 0.81812 33.6912 1.01758C33.6515 1.21703 33.6719 1.42377 33.7497 1.61165C33.8275 1.79954 33.9593 1.96013 34.1284 2.07311C34.2975 2.18609 34.4963 2.24641 34.6996 2.24641C34.9723 2.24641 35.2339 2.13806 35.4267 1.94523C35.6195 1.7524 35.7279 1.49087 35.7279 1.21817ZM38.7905 1.21817C38.7905 1.0148 38.7301 0.816007 38.6172 0.646916C38.5042 0.477824 38.3436 0.346031 38.1557 0.268207C37.9678 0.190383 37.7611 0.170026 37.5616 0.2097C37.3622 0.249375 37.179 0.347299 37.0352 0.4911C36.8914 0.6349 36.7934 0.81812 36.7538 1.01758C36.7141 1.21703 36.7344 1.42377 36.8123 1.61165C36.8901 1.79954 37.0219 1.96013 37.191 2.07311C37.3601 2.18609 37.5589 2.24641 37.7622 2.24641C37.8977 2.24789 38.032 2.2223 38.1575 2.17115C38.2829 2.12 38.3968 2.04432 38.4926 1.94854C38.5884 1.85276 38.664 1.73881 38.7152 1.61339C38.7663 1.48797 38.7919 1.35361 38.7905 1.21817ZM23.4555 9.35555C23.4576 9.15127 23.3989 8.95096 23.2868 8.78019C23.1746 8.60941 23.0142 8.47591 22.8259 8.39672C22.6375 8.31753 22.4299 8.29623 22.2294 8.33555C22.0289 8.37487 21.8447 8.47303 21.7002 8.61749C21.5558 8.76195 21.4576 8.94618 21.4183 9.14666C21.379 9.34715 21.4003 9.55479 21.4794 9.74312C21.5586 9.93145 21.6921 10.0919 21.8629 10.2041C22.0337 10.3162 22.234 10.3749 22.4383 10.3727C22.7072 10.3699 22.9642 10.2618 23.1544 10.0716C23.3445 9.88148 23.4526 9.62443 23.4555 9.35555ZM26.518 9.35555C26.5202 9.15127 26.4615 8.95096 26.3494 8.78019C26.2372 8.60941 26.0768 8.47591 25.8884 8.39672C25.7001 8.31753 25.4924 8.29623 25.292 8.33555C25.0915 8.37487 24.9073 8.47303 24.7628 8.61749C24.6183 8.76195 24.5202 8.94618 24.4809 9.14666C24.4415 9.34715 24.4628 9.55479 24.542 9.74312C24.6212 9.93145 24.7547 10.0919 24.9255 10.2041C25.0963 10.3162 25.2966 10.3749 25.5009 10.3727C25.7697 10.3699 26.0268 10.2618 26.2169 10.0716C26.4071 9.88148 26.5152 9.62443 26.518 9.35555ZM29.5917 9.35555C29.6066 9.21232 29.5912 9.06755 29.5466 8.93062C29.502 8.79369 29.4292 8.66766 29.3328 8.56069C29.2363 8.45371 29.1185 8.36818 28.987 8.30964C28.8554 8.25109 28.713 8.22085 28.569 8.22085C28.425 8.22085 28.2825 8.25109 28.151 8.30964C28.0194 8.36818 27.9016 8.45371 27.8052 8.56069C27.7088 8.66766 27.6359 8.79369 27.5913 8.93062C27.5467 9.06755 27.5313 9.21232 27.5463 9.35555C27.5726 9.60846 27.6917 9.84263 27.8806 10.0129C28.0694 10.1831 28.3147 10.2773 28.569 10.2773C28.8232 10.2773 29.0685 10.1831 29.2574 10.0129C29.4462 9.84263 29.5653 9.60846 29.5917 9.35555ZM32.6542 9.35555C32.6564 9.15127 32.5977 8.95096 32.4856 8.78019C32.3734 8.60941 32.213 8.47591 32.0246 8.39672C31.8363 8.31753 31.6287 8.29623 31.4282 8.33555C31.2277 8.37487 31.0435 8.47303 30.899 8.61749C30.7545 8.76195 30.6564 8.94618 30.6171 9.14666C30.5777 9.34715 30.599 9.55479 30.6782 9.74312C30.7574 9.93145 30.8909 10.0919 31.0617 10.2041C31.2325 10.3162 31.4328 10.3749 31.6371 10.3727C31.906 10.3699 32.163 10.2618 32.3531 10.0716C32.5433 9.88148 32.6514 9.62443 32.6542 9.35555ZM35.7279 9.35555C35.7428 9.21232 35.7275 9.06755 35.6828 8.93062C35.6382 8.79369 35.5654 8.66766 35.469 8.56069C35.3726 8.45371 35.2547 8.36818 35.1232 8.30964C34.9916 8.25109 34.8492 8.22085 34.7052 8.22085C34.5612 8.22085 34.4188 8.25109 34.2872 8.30964C34.1556 8.36818 34.0378 8.45371 33.9414 8.56069C33.845 8.66766 33.7721 8.79369 33.7275 8.93062C33.6829 9.06755 33.6676 9.21232 33.6825 9.35555C33.7088 9.60846 33.8279 9.84263 34.0168 10.0129C34.2057 10.1831 34.4509 10.2773 34.7052 10.2773C34.9594 10.2773 35.2047 10.1831 35.3936 10.0129C35.5824 9.84263 35.7015 9.60846 35.7279 9.35555ZM38.7905 9.35555C38.8054 9.21232 38.79 9.06755 38.7454 8.93062C38.7008 8.79369 38.628 8.66766 38.5315 8.56069C38.4351 8.45371 38.3173 8.36818 38.1857 8.30964C38.0542 8.25109 37.9118 8.22085 37.7678 8.22085C37.6237 8.22085 37.4813 8.25109 37.3498 8.30964C37.2182 8.36818 37.1004 8.45371 37.004 8.56069C36.9076 8.66766 36.8347 8.79369 36.7901 8.93062C36.7455 9.06755 36.7301 9.21232 36.745 9.35555C36.7714 9.60846 36.8905 9.84263 37.0794 10.0129C37.2682 10.1831 37.5135 10.2773 37.7678 10.2773C38.022 10.2773 38.2673 10.1831 38.4561 10.0129C38.645 9.84263 38.7641 9.60846 38.7905 9.35555ZM33.9368 21.1083C33.9368 20.905 33.8765 20.7062 33.7635 20.5371C33.6505 20.368 33.4899 20.2362 33.302 20.1584C33.1141 20.0806 32.9074 20.0602 32.7079 20.0999C32.5085 20.1395 32.3253 20.2375 32.1815 20.3813C32.0377 20.5251 31.9397 20.7083 31.9001 20.9077C31.8604 21.1072 31.8808 21.3139 31.9586 21.5018C32.0364 21.6897 32.1682 21.8503 32.3373 21.9633C32.5064 22.0762 32.7052 22.1366 32.9085 22.1366C33.1738 22.1368 33.4288 22.0346 33.6204 21.8512C33.812 21.6678 33.9254 21.4175 33.9368 21.1526V21.1083ZM36.9993 21.1083C36.973 20.8554 36.8539 20.6213 36.665 20.451C36.4762 20.2808 36.2309 20.1866 35.9766 20.1866C35.7224 20.1866 35.4771 20.2808 35.2882 20.451C35.0994 20.6213 34.9803 20.8554 34.9539 21.1083C34.939 21.2516 34.9544 21.3963 34.999 21.5333C35.0436 21.6702 35.1164 21.7962 35.2129 21.9032C35.3093 22.0102 35.4271 22.0957 35.5587 22.1543C35.6902 22.2128 35.8326 22.243 35.9766 22.243C36.1206 22.243 36.2631 22.2128 36.3946 22.1543C36.5262 22.0957 36.644 22.0102 36.7404 21.9032C36.8368 21.7962 36.9097 21.6702 36.9543 21.5333C36.9989 21.3963 37.0143 21.2516 36.9993 21.1083ZM40.073 21.1083C40.073 20.905 40.0127 20.7062 39.8997 20.5371C39.7867 20.368 39.6261 20.2362 39.4382 20.1584C39.2503 20.0806 39.0436 20.0602 38.8441 20.0999C38.6447 20.1395 38.4615 20.2375 38.3177 20.3813C38.1739 20.5251 38.0759 20.7083 38.0363 20.9077C37.9966 21.1072 38.017 21.3139 38.0948 21.5018C38.1726 21.6897 38.3044 21.8503 38.4735 21.9633C38.6426 22.0762 38.8414 22.1366 39.0447 22.1366C39.31 22.1368 39.565 22.0346 39.7566 21.8512C39.9482 21.6678 40.0616 21.4175 40.073 21.1526V21.1083ZM43.1356 21.1083C43.1356 20.905 43.0752 20.7062 42.9623 20.5371C42.8493 20.368 42.6887 20.2362 42.5008 20.1584C42.3129 20.0806 42.1062 20.0602 41.9067 20.0999C41.7073 20.1395 41.5241 20.2375 41.3803 20.3813C41.2365 20.5251 41.1385 20.7083 41.0989 20.9077C41.0592 21.1072 41.0795 21.3139 41.1574 21.5018C41.2352 21.6897 41.367 21.8503 41.5361 21.9633C41.7052 22.0762 41.904 22.1366 42.1073 22.1366C42.3725 22.1368 42.6276 22.0346 42.8192 21.8512C43.0108 21.6678 43.1241 21.4175 43.1356 21.1526V21.1083ZM46.1981 21.1083C46.1718 20.8554 46.0527 20.6213 45.8638 20.451C45.6749 20.2808 45.4297 20.1866 45.1754 20.1866C44.9212 20.1866 44.6759 20.2808 44.487 20.451C44.2982 20.6213 44.1791 20.8554 44.1527 21.1083C44.1378 21.2516 44.1532 21.3963 44.1978 21.5333C44.2424 21.6702 44.3152 21.7962 44.4116 21.9032C44.5081 22.0102 44.6259 22.0957 44.7574 22.1543C44.889 22.2128 45.0314 22.243 45.1754 22.243C45.3194 22.243 45.4618 22.2128 45.5934 22.1543C45.725 22.0957 45.8428 22.0102 45.9392 21.9032C46.0356 21.7962 46.1085 21.6702 46.1531 21.5333C46.1977 21.3963 46.213 21.2516 46.1981 21.1083ZM49.2718 21.1083C49.2718 20.905 49.2115 20.7062 49.0985 20.5371C48.9855 20.368 48.8249 20.2362 48.637 20.1584C48.4491 20.0806 48.2424 20.0602 48.0429 20.0999C47.8435 20.1395 47.6603 20.2375 47.5165 20.3813C47.3727 20.5251 47.2747 20.7083 47.2351 20.9077C47.1954 21.1072 47.2157 21.3139 47.2936 21.5018C47.3714 21.6897 47.5032 21.8503 47.6723 21.9633C47.8414 22.0762 48.0402 22.1366 48.2435 22.1366C48.5087 22.1368 48.7638 22.0346 48.9554 21.8512C49.147 21.6678 49.2604 21.4175 49.2718 21.1526V21.1083ZM33.9368 29.5885C33.939 29.3846 33.8805 29.1848 33.7689 29.0142C33.6572 28.8437 33.4974 28.7102 33.3097 28.6307C33.1221 28.5511 32.915 28.5292 32.7148 28.5676C32.5146 28.606 32.3304 28.7031 32.1855 28.8464C32.0406 28.9898 31.9415 29.173 31.901 29.3727C31.8604 29.5725 31.8801 29.7798 31.9576 29.9683C32.0351 30.1568 32.1668 30.3181 32.3362 30.4316C32.5055 30.545 32.7047 30.6056 32.9085 30.6056C33.1793 30.6057 33.4392 30.4988 33.6317 30.3084C33.8242 30.118 33.9339 29.8592 33.9368 29.5885ZM36.9993 29.5885C37.0015 29.3842 36.9428 29.1839 36.8307 29.0131C36.7185 28.8423 36.5581 28.7088 36.3697 28.6296C36.1814 28.5504 35.9738 28.5291 35.7733 28.5685C35.5728 28.6078 35.3886 28.7059 35.2441 28.8504C35.0996 28.9949 35.0015 29.1791 34.9622 29.3796C34.9228 29.58 34.9441 29.7877 35.0233 29.976C35.1025 30.1644 35.236 30.3248 35.4068 30.437C35.5776 30.5491 35.7779 30.6078 35.9822 30.6056C36.2519 30.6056 36.5107 30.4985 36.7014 30.3077C36.8922 30.1169 36.9993 29.8582 36.9993 29.5885ZM40.073 29.5885C40.0752 29.3846 40.0167 29.1848 39.9051 29.0142C39.7934 28.8437 39.6336 28.7102 39.446 28.6307C39.2583 28.5511 39.0512 28.5292 38.851 28.5676C38.6508 28.606 38.4666 28.7031 38.3217 28.8464C38.1768 28.9898 38.0777 29.173 38.0372 29.3727C37.9966 29.5725 38.0163 29.7798 38.0938 29.9683C38.1713 30.1568 38.303 30.3181 38.4724 30.4316C38.6417 30.545 38.8409 30.6056 39.0447 30.6056C39.3155 30.6057 39.5754 30.4988 39.7679 30.3084C39.9604 30.118 40.0701 29.8592 40.073 29.5885ZM43.1356 29.5885C43.1377 29.3846 43.0793 29.1848 42.9677 29.0142C42.856 28.8437 42.6962 28.7102 42.5085 28.6307C42.3209 28.5511 42.1138 28.5292 41.9136 28.5676C41.7134 28.606 41.5292 28.7031 41.3843 28.8464C41.2393 28.9898 41.1403 29.173 41.0997 29.3727C41.0592 29.5725 41.0789 29.7798 41.1564 29.9683C41.2338 30.1568 41.3656 30.3181 41.5349 30.4316C41.7043 30.545 41.9035 30.6056 42.1073 30.6056C42.3781 30.6057 42.638 30.4988 42.8305 30.3084C43.023 30.118 43.1326 29.8592 43.1356 29.5885ZM46.1981 29.5885C46.2003 29.3842 46.1416 29.1839 46.0295 29.0131C45.9173 28.8423 45.7569 28.7088 45.5685 28.6296C45.3802 28.5504 45.1725 28.5291 44.9721 28.5685C44.7716 28.6078 44.5874 28.7059 44.4429 28.8504C44.2984 28.9949 44.2003 29.1791 44.161 29.3796C44.1216 29.58 44.1429 29.7877 44.2221 29.976C44.3013 30.1644 44.4348 30.3248 44.6056 30.437C44.7764 30.5491 44.9767 30.6078 45.181 30.6056C45.4507 30.6056 45.7094 30.4985 45.9002 30.3077C46.091 30.1169 46.1981 29.8582 46.1981 29.5885ZM49.2718 29.5885C49.274 29.3846 49.2155 29.1848 49.1039 29.0142C48.9922 28.8437 48.8324 28.7102 48.6447 28.6307C48.4571 28.5511 48.25 28.5292 48.0498 28.5676C47.8496 28.606 47.6654 28.7031 47.5205 28.8464C47.3756 28.9898 47.2765 29.173 47.2359 29.3727C47.1954 29.5725 47.2151 29.7798 47.2926 29.9683C47.37 30.1568 47.5018 30.3181 47.6712 30.4316C47.8405 30.545 48.0397 30.6056 48.2435 30.6056C48.5143 30.6057 48.7742 30.4988 48.9667 30.3084C49.1592 30.118 49.2688 29.8592 49.2718 29.5885Z" fill="url(#paint0_linear_1_3131)"/>
<defs>
<linearGradient id="paint0_linear_1_3131" x1="0.492432" y1="15.4587" x2="49.2718" y2="15.4587" gradientUnits="userSpaceOnUse">
<stop stop-color="#00F5A0"/>
<stop offset="1" stop-color="#00D9F5"/>
</linearGradient>
</defs>
</svg>
