<svg width="39" height="38" viewBox="0 0 39 38" fill="none" xmlns="http://www.w3.org/2000/svg">
<ellipse cx="19.3519" cy="18.868" rx="18.8683" ry="18.8683" fill="url(#paint0_linear_1_2993)"/>
<path d="M10.0633 28.7052H14.0113V14.0975H10.0633V28.7052ZM12.0373 7.64905C10.7213 7.64905 9.66846 8.70185 9.66846 10.0179C9.66846 11.3339 10.7213 12.3867 12.0373 12.3867C13.3533 12.3867 14.4061 11.3339 14.4061 10.0179C14.4061 8.70185 13.3533 7.64905 12.0373 7.64905ZM20.7229 16.3347V14.0975H16.7749V28.7052H20.7229V21.2039C20.7229 16.9927 26.1185 16.7295 26.1185 21.2039V28.7052H30.0666V19.7563C30.0666 12.6499 22.5653 12.9131 20.7229 16.3347Z" fill="#1F2626"/>
<defs>
<linearGradient id="paint0_linear_1_2993" x1="0.483643" y1="18.868" x2="38.2201" y2="18.868" gradientUnits="userSpaceOnUse">
<stop stop-color="#00F5A0"/>
<stop offset="1" stop-color="#00D9F5"/>
</linearGradient>
</defs>
</svg>
