<svg width="32" height="32" viewBox="0 0 32 32" fill="none" xmlns="http://www.w3.org/2000/svg">

    <g id="arrowScroll">
        <rect width="32" height="32" fill="#F5F5F5"/>
        <g id="spa-dark">
            <rect width="1440" height="3474" transform="translate(-696 -690)" fill="#041F31"/>
            <g id="arrow scroll">
                <g id="Group">
                    <path id="Vector" fill-rule="evenodd" clip-rule="evenodd" d="M15.9993 2C16.2645 2 16.5189 2.10536 16.7064 2.29289C16.894 2.48043 16.9993 2.73478 16.9993 3V26.586L23.2913 20.292C23.4791 20.1042 23.7338 19.9987 23.9993 19.9987C24.2649 19.9987 24.5195 20.1042 24.7073 20.292C24.8951 20.4798 25.0006 20.7344 25.0006 21C25.0006 21.2656 24.8951 21.5202 24.7073 21.708L16.7073 29.708C16.6144 29.8011 16.5041 29.875 16.3826 29.9254C16.2611 29.9758 16.1308 30.0018 15.9993 30.0018C15.8678 30.0018 15.7375 29.9758 15.616 29.9254C15.4946 29.875 15.3842 29.8011 15.2913 29.708L7.29131 21.708C7.10354 21.5202 6.99805 21.2656 6.99805 21C6.99805 20.7344 7.10354 20.4798 7.29131 20.292C7.47908 20.1042 7.73376 19.9987 7.99931 19.9987C8.26486 19.9987 8.51954 20.1042 8.70731 20.292L14.9993 26.586V3C14.9993 2.73478 15.1047 2.48043 15.2922 2.29289C15.4797 2.10536 15.7341 2 15.9993 2Z" fill="#D7E5EC"/>
                </g>
            </g>
        </g>
    </g>

    <g id="vectorForPhoto">
        <path id="Vector" d="M5.05789 2.10267H1.47567C1.24108 2.10267 1.0161 2.00948 0.850229 1.84361C0.684353 1.67773 0.591166 1.45275 0.591166 1.21817C0.591166 0.983583 0.684353 0.758603 0.850229 0.592728C1.0161 0.426852 1.24108 0.333665 1.47567 0.333665H5.05789C5.29247 0.333665 5.51744 0.426852 5.68332 0.592728C5.84919 0.758603 5.94239 0.983583 5.94239 1.21817C5.94239 1.45275 5.84919 1.67773 5.68332 1.84361C5.51744 2.00948 5.29247 2.10267 5.05789 2.10267ZM5.94239 5.30897C5.94239 5.07439 5.84919 4.84941 5.68332 4.68353C5.51744 4.51765 5.29247 4.42447 5.05789 4.42447H1.47567C1.24108 4.42447 1.0161 4.51765 0.850229 4.68353C0.684353 4.84941 0.591166 5.07439 0.591166 5.30897C0.591166 5.54355 0.684353 5.76853 0.850229 5.93441C1.0161 6.10028 1.24108 6.19347 1.47567 6.19347H5.05789C5.17589 6.19642 5.29329 6.17573 5.40316 6.1326C5.51304 6.08948 5.61317 6.02478 5.69766 5.94235C5.78215 5.85993 5.84929 5.76142 5.89512 5.65264C5.94094 5.54386 5.96453 5.42701 5.9645 5.30897H5.94239ZM5.94239 9.39977C5.94239 9.28362 5.91951 9.16861 5.87506 9.0613C5.83061 8.95399 5.76545 8.85648 5.68332 8.77435C5.60118 8.69222 5.50368 8.62707 5.39637 8.58262C5.28905 8.53817 5.17404 8.51529 5.05789 8.51529H1.47567C1.24108 8.51529 1.0161 8.60847 0.850229 8.77435C0.684353 8.94023 0.591166 9.16519 0.591166 9.39977C0.591166 9.63436 0.684353 9.85934 0.850229 10.0252C1.0161 10.1911 1.24108 10.2843 1.47567 10.2843H5.05789C5.1797 10.2875 5.30087 10.2655 5.41378 10.2196C5.5267 10.1738 5.62892 10.1051 5.71405 10.0179C5.79917 9.93074 5.86535 9.82689 5.90845 9.7129C5.95155 9.59892 5.97063 9.47726 5.9645 9.35555L5.94239 9.39977ZM5.94239 13.4906C5.94239 13.256 5.84919 13.031 5.68332 12.8652C5.51744 12.6993 5.29247 12.6061 5.05789 12.6061H1.47567C1.24108 12.6061 1.0161 12.6993 0.850229 12.8652C0.684353 13.031 0.591166 13.256 0.591166 13.4906C0.591166 13.7252 0.684353 13.9501 0.850229 14.116C1.0161 14.2819 1.24108 14.3751 1.47567 14.3751H5.05789C5.17589 14.378 5.29329 14.3573 5.40316 14.3142C5.51304 14.2711 5.61317 14.2064 5.69766 14.124C5.78215 14.0415 5.84929 13.943 5.89512 13.8343C5.94094 13.7255 5.96453 13.6086 5.9645 13.4906H5.94239ZM5.94239 17.5814C5.94239 17.3468 5.84919 17.1218 5.68332 16.956C5.51744 16.7901 5.29247 16.6969 5.05789 16.6969H1.47567C1.35196 16.683 1.22671 16.6954 1.10811 16.7332C0.989514 16.771 0.880244 16.8335 0.787437 16.9164C0.69463 16.9994 0.620382 17.101 0.569547 17.2147C0.518711 17.3283 0.492432 17.4514 0.492432 17.5759C0.492432 17.7003 0.518711 17.8234 0.569547 17.9371C0.620382 18.0507 0.69463 18.1523 0.787437 18.2353C0.880244 18.3182 0.989514 18.3807 1.10811 18.4185C1.22671 18.4564 1.35196 18.4687 1.47567 18.4548H5.05789C5.17535 18.4593 5.2925 18.44 5.40233 18.3981C5.51216 18.3562 5.6124 18.2926 5.69706 18.211C5.78171 18.1295 5.84903 18.0317 5.89498 17.9235C5.94094 17.8153 5.96458 17.6989 5.9645 17.5814H5.94239ZM5.94239 21.6611C5.9424 21.5455 5.91944 21.431 5.87486 21.3243C5.83027 21.2176 5.76494 21.1208 5.68266 21.0396C5.60038 20.9583 5.50278 20.8942 5.39553 20.851C5.28828 20.8078 5.17351 20.7862 5.05789 20.7877H1.47567C1.35196 20.7738 1.22671 20.7862 1.10811 20.824C0.989514 20.8619 0.880244 20.9243 0.787437 21.0072C0.69463 21.0902 0.620382 21.1918 0.569547 21.3055C0.518711 21.4191 0.492432 21.5422 0.492432 21.6667C0.492432 21.7912 0.518711 21.9142 0.569547 22.0279C0.620382 22.1415 0.69463 22.2431 0.787437 22.3261C0.880244 22.4091 0.989514 22.4715 1.10811 22.5093C1.22671 22.5472 1.35196 22.5595 1.47567 22.5456H5.05789C5.17589 22.5486 5.29329 22.5279 5.40316 22.4848C5.51304 22.4416 5.61317 22.377 5.69766 22.2945C5.78215 22.2121 5.84929 22.1136 5.89512 22.0048C5.94094 21.896 5.96453 21.7792 5.9645 21.6611H5.94239ZM5.94239 25.752C5.94239 25.6358 5.91951 25.5208 5.87506 25.4135C5.83061 25.3062 5.76545 25.2086 5.68332 25.1265C5.60118 25.0444 5.50368 24.9792 5.39637 24.9348C5.28905 24.8903 5.17404 24.8675 5.05789 24.8675H1.47567C1.24108 24.8675 1.0161 24.9606 0.850229 25.1265C0.684353 25.2924 0.591166 25.5174 0.591166 25.752C0.591166 25.9865 0.684353 26.2115 0.850229 26.3774C1.0161 26.5433 1.24108 26.6365 1.47567 26.6365H5.05789C5.17589 26.6394 5.29329 26.6187 5.40316 26.5756C5.51304 26.5324 5.61317 26.4678 5.69766 26.3853C5.78215 26.3029 5.84929 26.2044 5.89512 26.0956C5.94094 25.9868 5.96453 25.87 5.9645 25.752H5.94239ZM5.94239 29.8428C5.94239 29.6082 5.84919 29.3832 5.68332 29.2173C5.51744 29.0514 5.29247 28.9583 5.05789 28.9583H1.47567C1.24108 28.9583 1.0161 29.0514 0.850229 29.2173C0.684353 29.3832 0.591166 29.6082 0.591166 29.8428C0.591166 30.0773 0.684353 30.3023 0.850229 30.4682C1.0161 30.6341 1.24108 30.7273 1.47567 30.7273H5.05789C5.17589 30.7302 5.29329 30.7095 5.40316 30.6664C5.51304 30.6233 5.61317 30.5586 5.69766 30.4761C5.78215 30.3937 5.84929 30.2952 5.89512 30.1864C5.94094 30.0776 5.96453 29.9608 5.9645 29.8428H5.94239ZM19.3204 1.21817C19.3204 0.983583 19.2272 0.758603 19.0614 0.592728C18.8955 0.426852 18.6705 0.333665 18.4359 0.333665H9.04919C8.8146 0.333665 8.58962 0.426852 8.42375 0.592728C8.25787 0.758603 8.16468 0.983583 8.16468 1.21817C8.16468 1.45275 8.25787 1.67773 8.42375 1.84361C8.58962 2.00948 8.8146 2.10267 9.04919 2.10267H18.4359C18.6705 2.10267 18.8955 2.00948 19.0614 1.84361C19.2272 1.67773 19.3204 1.45275 19.3204 1.21817ZM19.3204 5.30897C19.3204 5.07439 19.2272 4.84941 19.0614 4.68353C18.8955 4.51765 18.6705 4.42447 18.4359 4.42447H9.04919C8.8146 4.42447 8.58962 4.51765 8.42375 4.68353C8.25787 4.84941 8.16468 5.07439 8.16468 5.30897C8.16468 5.54355 8.25787 5.76853 8.42375 5.93441C8.58962 6.10028 8.8146 6.19347 9.04919 6.19347H18.4359C18.6705 6.19347 18.8955 6.10028 19.0614 5.93441C19.2272 5.76853 19.3204 5.54355 19.3204 5.30897ZM19.3204 9.39977C19.3204 9.28362 19.2975 9.16861 19.2531 9.0613C19.2086 8.95399 19.1435 8.85648 19.0614 8.77435C18.9792 8.69222 18.8817 8.62707 18.7744 8.58262C18.6671 8.53817 18.5521 8.51529 18.4359 8.51529H9.04919C8.8146 8.51529 8.58962 8.60847 8.42375 8.77435C8.25787 8.94023 8.16468 9.16519 8.16468 9.39977C8.16468 9.63436 8.25787 9.85934 8.42375 10.0252C8.58962 10.1911 8.8146 10.2843 9.04919 10.2843H18.4359C18.5559 10.2844 18.6746 10.2602 18.7849 10.213C18.8952 10.1658 18.9948 10.0967 19.0775 10.0098C19.1603 9.9229 19.2245 9.82011 19.2662 9.70764C19.308 9.59517 19.3264 9.47538 19.3204 9.35555V9.39977ZM19.3204 13.4906C19.3204 13.256 19.2272 13.031 19.0614 12.8652C18.8955 12.6993 18.6705 12.6061 18.4359 12.6061H9.04919C8.8146 12.6061 8.58962 12.6993 8.42375 12.8652C8.25787 13.031 8.16468 13.256 8.16468 13.4906C8.16468 13.7252 8.25787 13.9501 8.42375 14.116C8.58962 14.2819 8.8146 14.3751 9.04919 14.3751H18.4359C18.6705 14.3751 18.8955 14.2819 19.0614 14.116C19.2272 13.9501 19.3204 13.7252 19.3204 13.4906ZM19.3204 17.5814C19.3204 17.3468 19.2272 17.1218 19.0614 16.956C18.8955 16.7901 18.6705 16.6969 18.4359 16.6969H9.04919C8.92548 16.683 8.80023 16.6954 8.68164 16.7332C8.56304 16.771 8.45376 16.8335 8.36096 16.9164C8.26815 16.9994 8.1939 17.101 8.14306 17.2147C8.09223 17.3283 8.06595 17.4514 8.06595 17.5759C8.06595 17.7003 8.09223 17.8234 8.14306 17.9371C8.1939 18.0507 8.26815 18.1523 8.36096 18.2353C8.45376 18.3182 8.56304 18.3807 8.68164 18.4185C8.80023 18.4564 8.92548 18.4687 9.04919 18.4548H18.4359C18.5516 18.4563 18.6663 18.4348 18.7736 18.3916C18.8808 18.3483 18.9784 18.2842 19.0607 18.203C19.143 18.1217 19.2083 18.0249 19.2529 17.9182C19.2975 17.8115 19.3204 17.697 19.3204 17.5814ZM30.5646 21.6611C30.5646 21.5455 30.5417 21.431 30.4971 21.3243C30.4525 21.2176 30.3872 21.1208 30.3049 21.0396C30.2226 20.9583 30.125 20.8942 30.0178 20.851C29.9105 20.8078 29.7957 20.7862 29.6801 20.7877H20.3376C20.2139 20.7738 20.0886 20.7862 19.9701 20.824C19.8515 20.8619 19.7422 20.9243 19.6494 21.0072C19.5566 21.0902 19.4823 21.1918 19.4315 21.3055C19.3806 21.4191 19.3544 21.5422 19.3544 21.6667C19.3544 21.7912 19.3806 21.9142 19.4315 22.0279C19.4823 22.1415 19.5566 22.2431 19.6494 22.3261C19.7422 22.4091 19.8515 22.4715 19.9701 22.5093C20.0886 22.5472 20.2139 22.5595 20.3376 22.5456H29.7243C29.9521 22.537 30.1675 22.4397 30.3245 22.2744C30.4815 22.1091 30.5677 21.8891 30.5646 21.6611ZM30.5646 25.752C30.5646 25.6358 30.5417 25.5208 30.4973 25.4135C30.4528 25.3062 30.3877 25.2086 30.3056 25.1265C30.2234 25.0444 30.1259 24.9792 30.0186 24.9348C29.9113 24.8903 29.7963 24.8675 29.6801 24.8675H20.3376C20.103 24.8675 19.878 24.9606 19.7122 25.1265C19.5463 25.2924 19.4531 25.5174 19.4531 25.752C19.4531 25.9865 19.5463 26.2115 19.7122 26.3774C19.878 26.5433 20.103 26.6365 20.3376 26.6365H29.7243C29.9512 26.6251 30.1649 26.5269 30.3214 26.3623C30.4778 26.1976 30.5649 25.9791 30.5646 25.752ZM30.5646 29.8428C30.5646 29.6082 30.4714 29.3832 30.3056 29.2173C30.1397 29.0514 29.9147 28.9583 29.6801 28.9583H20.3376C20.103 28.9583 19.878 29.0514 19.7122 29.2173C19.5463 29.3832 19.4531 29.6082 19.4531 29.8428C19.4531 30.0773 19.5463 30.3023 19.7122 30.4682C19.878 30.6341 20.103 30.7273 20.3376 30.7273H29.7243C29.9512 30.7159 30.1649 30.6177 30.3214 30.4531C30.4778 30.2884 30.5649 30.0699 30.5646 29.8428ZM23.4555 1.21817C23.4291 0.965266 23.31 0.73109 23.1212 0.560859C22.9323 0.390628 22.687 0.296415 22.4328 0.296415C22.1785 0.296415 21.9332 0.390628 21.7444 0.560859C21.5555 0.73109 21.4364 0.965266 21.4101 1.21817C21.3951 1.3614 21.4105 1.50617 21.4551 1.6431C21.4997 1.78003 21.5726 1.90606 21.669 2.01304C21.7654 2.12001 21.8832 2.20554 22.0148 2.26409C22.1463 2.32263 22.2887 2.35287 22.4328 2.35287C22.5768 2.35287 22.7192 2.32263 22.8507 2.26409C22.9823 2.20554 23.1001 2.12001 23.1965 2.01304C23.293 1.90606 23.3658 1.78003 23.4104 1.6431C23.455 1.50617 23.4704 1.3614 23.4555 1.21817ZM26.518 1.21817C26.4917 0.965266 26.3726 0.73109 26.1837 0.560859C25.9949 0.390628 25.7496 0.296415 25.4953 0.296415C25.2411 0.296415 24.9958 0.390628 24.8069 0.560859C24.6181 0.73109 24.499 0.965266 24.4726 1.21817C24.4577 1.3614 24.4731 1.50617 24.5177 1.6431C24.5623 1.78003 24.6351 1.90606 24.7315 2.01304C24.828 2.12001 24.9458 2.20554 25.0773 2.26409C25.2089 2.32263 25.3513 2.35287 25.4953 2.35287C25.6393 2.35287 25.7818 2.32263 25.9133 2.26409C26.0449 2.20554 26.1627 2.12001 26.2591 2.01304C26.3555 1.90606 26.4284 1.78003 26.473 1.6431C26.5176 1.50617 26.5329 1.3614 26.518 1.21817ZM29.5917 1.21817C29.5917 1.0148 29.5314 0.816007 29.4184 0.646916C29.3054 0.477824 29.1448 0.346031 28.9569 0.268207C28.769 0.190383 28.5623 0.170026 28.3628 0.2097C28.1634 0.249375 27.9802 0.347299 27.8364 0.4911C27.6926 0.6349 27.5946 0.81812 27.555 1.01758C27.5153 1.21703 27.5357 1.42377 27.6135 1.61165C27.6913 1.79954 27.8231 1.96013 27.9922 2.07311C28.1613 2.18609 28.3601 2.24641 28.5634 2.24641C28.8361 2.24641 29.0977 2.13806 29.2905 1.94523C29.4833 1.7524 29.5917 1.49087 29.5917 1.21817ZM32.6542 1.21817C32.6279 0.965266 32.5088 0.73109 32.3199 0.560859C32.1311 0.390628 31.8858 0.296415 31.6315 0.296415C31.3773 0.296415 31.132 0.390628 30.9431 0.560859C30.7543 0.73109 30.6352 0.965266 30.6088 1.21817C30.5939 1.3614 30.6093 1.50617 30.6539 1.6431C30.6985 1.78003 30.7713 1.90606 30.8678 2.01304C30.9642 2.12001 31.082 2.20554 31.2136 2.26409C31.3451 2.32263 31.4875 2.35287 31.6315 2.35287C31.7755 2.35287 31.918 2.32263 32.0495 2.26409C32.1811 2.20554 32.2989 2.12001 32.3953 2.01304C32.4917 1.90606 32.5646 1.78003 32.6092 1.6431C32.6538 1.50617 32.6692 1.3614 32.6542 1.21817ZM35.7279 1.21817C35.7279 1.0148 35.6676 0.816007 35.5546 0.646916C35.4416 0.477824 35.281 0.346031 35.0931 0.268207C34.9052 0.190383 34.6985 0.170026 34.499 0.2097C34.2996 0.249375 34.1164 0.347299 33.9726 0.4911C33.8288 0.6349 33.7309 0.81812 33.6912 1.01758C33.6515 1.21703 33.6719 1.42377 33.7497 1.61165C33.8275 1.79954 33.9593 1.96013 34.1284 2.07311C34.2975 2.18609 34.4963 2.24641 34.6996 2.24641C34.9723 2.24641 35.2339 2.13806 35.4267 1.94523C35.6195 1.7524 35.7279 1.49087 35.7279 1.21817ZM38.7905 1.21817C38.7905 1.0148 38.7301 0.816007 38.6172 0.646916C38.5042 0.477824 38.3436 0.346031 38.1557 0.268207C37.9678 0.190383 37.7611 0.170026 37.5616 0.2097C37.3622 0.249375 37.179 0.347299 37.0352 0.4911C36.8914 0.6349 36.7934 0.81812 36.7538 1.01758C36.7141 1.21703 36.7344 1.42377 36.8123 1.61165C36.8901 1.79954 37.0219 1.96013 37.191 2.07311C37.3601 2.18609 37.5589 2.24641 37.7622 2.24641C37.8977 2.24789 38.032 2.2223 38.1575 2.17115C38.2829 2.12 38.3968 2.04432 38.4926 1.94854C38.5884 1.85276 38.664 1.73881 38.7152 1.61339C38.7663 1.48797 38.7919 1.35361 38.7905 1.21817ZM23.4555 9.35555C23.4576 9.15127 23.3989 8.95096 23.2868 8.78019C23.1746 8.60941 23.0142 8.47591 22.8259 8.39672C22.6375 8.31753 22.4299 8.29623 22.2294 8.33555C22.0289 8.37487 21.8447 8.47303 21.7002 8.61749C21.5558 8.76195 21.4576 8.94618 21.4183 9.14666C21.379 9.34715 21.4003 9.55479 21.4794 9.74312C21.5586 9.93145 21.6921 10.0919 21.8629 10.2041C22.0337 10.3162 22.234 10.3749 22.4383 10.3727C22.7072 10.3699 22.9642 10.2618 23.1544 10.0716C23.3445 9.88148 23.4526 9.62443 23.4555 9.35555ZM26.518 9.35555C26.5202 9.15127 26.4615 8.95096 26.3494 8.78019C26.2372 8.60941 26.0768 8.47591 25.8884 8.39672C25.7001 8.31753 25.4924 8.29623 25.292 8.33555C25.0915 8.37487 24.9073 8.47303 24.7628 8.61749C24.6183 8.76195 24.5202 8.94618 24.4809 9.14666C24.4415 9.34715 24.4628 9.55479 24.542 9.74312C24.6212 9.93145 24.7547 10.0919 24.9255 10.2041C25.0963 10.3162 25.2966 10.3749 25.5009 10.3727C25.7697 10.3699 26.0268 10.2618 26.2169 10.0716C26.4071 9.88148 26.5152 9.62443 26.518 9.35555ZM29.5917 9.35555C29.6066 9.21232 29.5912 9.06755 29.5466 8.93062C29.502 8.79369 29.4292 8.66766 29.3328 8.56069C29.2363 8.45371 29.1185 8.36818 28.987 8.30964C28.8554 8.25109 28.713 8.22085 28.569 8.22085C28.425 8.22085 28.2825 8.25109 28.151 8.30964C28.0194 8.36818 27.9016 8.45371 27.8052 8.56069C27.7088 8.66766 27.6359 8.79369 27.5913 8.93062C27.5467 9.06755 27.5313 9.21232 27.5463 9.35555C27.5726 9.60846 27.6917 9.84263 27.8806 10.0129C28.0694 10.1831 28.3147 10.2773 28.569 10.2773C28.8232 10.2773 29.0685 10.1831 29.2574 10.0129C29.4462 9.84263 29.5653 9.60846 29.5917 9.35555ZM32.6542 9.35555C32.6564 9.15127 32.5977 8.95096 32.4856 8.78019C32.3734 8.60941 32.213 8.47591 32.0246 8.39672C31.8363 8.31753 31.6287 8.29623 31.4282 8.33555C31.2277 8.37487 31.0435 8.47303 30.899 8.61749C30.7545 8.76195 30.6564 8.94618 30.6171 9.14666C30.5777 9.34715 30.599 9.55479 30.6782 9.74312C30.7574 9.93145 30.8909 10.0919 31.0617 10.2041C31.2325 10.3162 31.4328 10.3749 31.6371 10.3727C31.906 10.3699 32.163 10.2618 32.3531 10.0716C32.5433 9.88148 32.6514 9.62443 32.6542 9.35555ZM35.7279 9.35555C35.7428 9.21232 35.7275 9.06755 35.6828 8.93062C35.6382 8.79369 35.5654 8.66766 35.469 8.56069C35.3726 8.45371 35.2547 8.36818 35.1232 8.30964C34.9916 8.25109 34.8492 8.22085 34.7052 8.22085C34.5612 8.22085 34.4188 8.25109 34.2872 8.30964C34.1556 8.36818 34.0378 8.45371 33.9414 8.56069C33.845 8.66766 33.7721 8.79369 33.7275 8.93062C33.6829 9.06755 33.6676 9.21232 33.6825 9.35555C33.7088 9.60846 33.8279 9.84263 34.0168 10.0129C34.2057 10.1831 34.4509 10.2773 34.7052 10.2773C34.9594 10.2773 35.2047 10.1831 35.3936 10.0129C35.5824 9.84263 35.7015 9.60846 35.7279 9.35555ZM38.7905 9.35555C38.8054 9.21232 38.79 9.06755 38.7454 8.93062C38.7008 8.79369 38.628 8.66766 38.5315 8.56069C38.4351 8.45371 38.3173 8.36818 38.1857 8.30964C38.0542 8.25109 37.9118 8.22085 37.7678 8.22085C37.6237 8.22085 37.4813 8.25109 37.3498 8.30964C37.2182 8.36818 37.1004 8.45371 37.004 8.56069C36.9076 8.66766 36.8347 8.79369 36.7901 8.93062C36.7455 9.06755 36.7301 9.21232 36.745 9.35555C36.7714 9.60846 36.8905 9.84263 37.0794 10.0129C37.2682 10.1831 37.5135 10.2773 37.7678 10.2773C38.022 10.2773 38.2673 10.1831 38.4561 10.0129C38.645 9.84263 38.7641 9.60846 38.7905 9.35555ZM33.9368 21.1083C33.9368 20.905 33.8765 20.7062 33.7635 20.5371C33.6505 20.368 33.4899 20.2362 33.302 20.1584C33.1141 20.0806 32.9074 20.0602 32.7079 20.0999C32.5085 20.1395 32.3253 20.2375 32.1815 20.3813C32.0377 20.5251 31.9397 20.7083 31.9001 20.9077C31.8604 21.1072 31.8808 21.3139 31.9586 21.5018C32.0364 21.6897 32.1682 21.8503 32.3373 21.9633C32.5064 22.0762 32.7052 22.1366 32.9085 22.1366C33.1738 22.1368 33.4288 22.0346 33.6204 21.8512C33.812 21.6678 33.9254 21.4175 33.9368 21.1526V21.1083ZM36.9993 21.1083C36.973 20.8554 36.8539 20.6213 36.665 20.451C36.4762 20.2808 36.2309 20.1866 35.9766 20.1866C35.7224 20.1866 35.4771 20.2808 35.2882 20.451C35.0994 20.6213 34.9803 20.8554 34.9539 21.1083C34.939 21.2516 34.9544 21.3963 34.999 21.5333C35.0436 21.6702 35.1164 21.7962 35.2129 21.9032C35.3093 22.0102 35.4271 22.0957 35.5587 22.1543C35.6902 22.2128 35.8326 22.243 35.9766 22.243C36.1206 22.243 36.2631 22.2128 36.3946 22.1543C36.5262 22.0957 36.644 22.0102 36.7404 21.9032C36.8368 21.7962 36.9097 21.6702 36.9543 21.5333C36.9989 21.3963 37.0143 21.2516 36.9993 21.1083ZM40.073 21.1083C40.073 20.905 40.0127 20.7062 39.8997 20.5371C39.7867 20.368 39.6261 20.2362 39.4382 20.1584C39.2503 20.0806 39.0436 20.0602 38.8441 20.0999C38.6447 20.1395 38.4615 20.2375 38.3177 20.3813C38.1739 20.5251 38.0759 20.7083 38.0363 20.9077C37.9966 21.1072 38.017 21.3139 38.0948 21.5018C38.1726 21.6897 38.3044 21.8503 38.4735 21.9633C38.6426 22.0762 38.8414 22.1366 39.0447 22.1366C39.31 22.1368 39.565 22.0346 39.7566 21.8512C39.9482 21.6678 40.0616 21.4175 40.073 21.1526V21.1083ZM43.1356 21.1083C43.1356 20.905 43.0752 20.7062 42.9623 20.5371C42.8493 20.368 42.6887 20.2362 42.5008 20.1584C42.3129 20.0806 42.1062 20.0602 41.9067 20.0999C41.7073 20.1395 41.5241 20.2375 41.3803 20.3813C41.2365 20.5251 41.1385 20.7083 41.0989 20.9077C41.0592 21.1072 41.0795 21.3139 41.1574 21.5018C41.2352 21.6897 41.367 21.8503 41.5361 21.9633C41.7052 22.0762 41.904 22.1366 42.1073 22.1366C42.3725 22.1368 42.6276 22.0346 42.8192 21.8512C43.0108 21.6678 43.1241 21.4175 43.1356 21.1526V21.1083ZM46.1981 21.1083C46.1718 20.8554 46.0527 20.6213 45.8638 20.451C45.6749 20.2808 45.4297 20.1866 45.1754 20.1866C44.9212 20.1866 44.6759 20.2808 44.487 20.451C44.2982 20.6213 44.1791 20.8554 44.1527 21.1083C44.1378 21.2516 44.1532 21.3963 44.1978 21.5333C44.2424 21.6702 44.3152 21.7962 44.4116 21.9032C44.5081 22.0102 44.6259 22.0957 44.7574 22.1543C44.889 22.2128 45.0314 22.243 45.1754 22.243C45.3194 22.243 45.4618 22.2128 45.5934 22.1543C45.725 22.0957 45.8428 22.0102 45.9392 21.9032C46.0356 21.7962 46.1085 21.6702 46.1531 21.5333C46.1977 21.3963 46.213 21.2516 46.1981 21.1083ZM49.2718 21.1083C49.2718 20.905 49.2115 20.7062 49.0985 20.5371C48.9855 20.368 48.8249 20.2362 48.637 20.1584C48.4491 20.0806 48.2424 20.0602 48.0429 20.0999C47.8435 20.1395 47.6603 20.2375 47.5165 20.3813C47.3727 20.5251 47.2747 20.7083 47.2351 20.9077C47.1954 21.1072 47.2157 21.3139 47.2936 21.5018C47.3714 21.6897 47.5032 21.8503 47.6723 21.9633C47.8414 22.0762 48.0402 22.1366 48.2435 22.1366C48.5087 22.1368 48.7638 22.0346 48.9554 21.8512C49.147 21.6678 49.2604 21.4175 49.2718 21.1526V21.1083ZM33.9368 29.5885C33.939 29.3846 33.8805 29.1848 33.7689 29.0142C33.6572 28.8437 33.4974 28.7102 33.3097 28.6307C33.1221 28.5511 32.915 28.5292 32.7148 28.5676C32.5146 28.606 32.3304 28.7031 32.1855 28.8464C32.0406 28.9898 31.9415 29.173 31.901 29.3727C31.8604 29.5725 31.8801 29.7798 31.9576 29.9683C32.0351 30.1568 32.1668 30.3181 32.3362 30.4316C32.5055 30.545 32.7047 30.6056 32.9085 30.6056C33.1793 30.6057 33.4392 30.4988 33.6317 30.3084C33.8242 30.118 33.9339 29.8592 33.9368 29.5885ZM36.9993 29.5885C37.0015 29.3842 36.9428 29.1839 36.8307 29.0131C36.7185 28.8423 36.5581 28.7088 36.3697 28.6296C36.1814 28.5504 35.9738 28.5291 35.7733 28.5685C35.5728 28.6078 35.3886 28.7059 35.2441 28.8504C35.0996 28.9949 35.0015 29.1791 34.9622 29.3796C34.9228 29.58 34.9441 29.7877 35.0233 29.976C35.1025 30.1644 35.236 30.3248 35.4068 30.437C35.5776 30.5491 35.7779 30.6078 35.9822 30.6056C36.2519 30.6056 36.5107 30.4985 36.7014 30.3077C36.8922 30.1169 36.9993 29.8582 36.9993 29.5885ZM40.073 29.5885C40.0752 29.3846 40.0167 29.1848 39.9051 29.0142C39.7934 28.8437 39.6336 28.7102 39.446 28.6307C39.2583 28.5511 39.0512 28.5292 38.851 28.5676C38.6508 28.606 38.4666 28.7031 38.3217 28.8464C38.1768 28.9898 38.0777 29.173 38.0372 29.3727C37.9966 29.5725 38.0163 29.7798 38.0938 29.9683C38.1713 30.1568 38.303 30.3181 38.4724 30.4316C38.6417 30.545 38.8409 30.6056 39.0447 30.6056C39.3155 30.6057 39.5754 30.4988 39.7679 30.3084C39.9604 30.118 40.0701 29.8592 40.073 29.5885ZM43.1356 29.5885C43.1377 29.3846 43.0793 29.1848 42.9677 29.0142C42.856 28.8437 42.6962 28.7102 42.5085 28.6307C42.3209 28.5511 42.1138 28.5292 41.9136 28.5676C41.7134 28.606 41.5292 28.7031 41.3843 28.8464C41.2393 28.9898 41.1403 29.173 41.0997 29.3727C41.0592 29.5725 41.0789 29.7798 41.1564 29.9683C41.2338 30.1568 41.3656 30.3181 41.5349 30.4316C41.7043 30.545 41.9035 30.6056 42.1073 30.6056C42.3781 30.6057 42.638 30.4988 42.8305 30.3084C43.023 30.118 43.1326 29.8592 43.1356 29.5885ZM46.1981 29.5885C46.2003 29.3842 46.1416 29.1839 46.0295 29.0131C45.9173 28.8423 45.7569 28.7088 45.5685 28.6296C45.3802 28.5504 45.1725 28.5291 44.9721 28.5685C44.7716 28.6078 44.5874 28.7059 44.4429 28.8504C44.2984 28.9949 44.2003 29.1791 44.161 29.3796C44.1216 29.58 44.1429 29.7877 44.2221 29.976C44.3013 30.1644 44.4348 30.3248 44.6056 30.437C44.7764 30.5491 44.9767 30.6078 45.181 30.6056C45.4507 30.6056 45.7094 30.4985 45.9002 30.3077C46.091 30.1169 46.1981 29.8582 46.1981 29.5885ZM49.2718 29.5885C49.274 29.3846 49.2155 29.1848 49.1039 29.0142C48.9922 28.8437 48.8324 28.7102 48.6447 28.6307C48.4571 28.5511 48.25 28.5292 48.0498 28.5676C47.8496 28.606 47.6654 28.7031 47.5205 28.8464C47.3756 28.9898 47.2765 29.173 47.2359 29.3727C47.1954 29.5725 47.2151 29.7798 47.2926 29.9683C47.37 30.1568 47.5018 30.3181 47.6712 30.4316C47.8405 30.545 48.0397 30.6056 48.2435 30.6056C48.5143 30.6057 48.7742 30.4988 48.9667 30.3084C49.1592 30.118 49.2688 29.8592 49.2718 29.5885Z" fill="url(#paint0_linear_1_3131)"/>
        <defs>
            <linearGradient id="paint0_linear_1_3131" x1="0.492432" y1="15.4587" x2="49.2718" y2="15.4587" gradientUnits="userSpaceOnUse">
                <stop stop-color="#00F5A0"/>
                <stop offset="1" stop-color="#00D9F5"/>
            </linearGradient>
        </defs>
    </g>

    <g id="cssSkill">
        <path d="M22.1325 101.154L13.71 7.4375H106.29L97.8562 101.139L59.9437 111.562L22.1325 101.154Z" fill="#1572B6"/>
        <path d="M60 103.597L90.6375 95.1739L97.845 15.1018H60V103.597Z" fill="#33A9DC"/>
        <path d="M60 49.054H75.3375L76.395 37.2842H60V25.7896H89.0625L88.785 28.8724L85.9387 60.5487H60V49.054Z" fill="white"/>
        <path d="M60.0713 78.9045L60.0188 78.9193L47.1113 75.4609L46.2863 66.2942H34.65L36.2738 84.3413L60.015 90.8788L60.0713 90.864V78.9045Z" fill="#EBEBEB"/>
        <path d="M74.3513 60.0615L72.9563 75.4534L60.03 78.9119V90.8714L83.79 84.3412L83.9663 82.4001L85.98 60.0615H74.3513Z" fill="white"/>
        <path d="M60.0413 25.7896V37.2842H32.0438L31.8113 34.6997L31.2825 28.8724L31.005 25.7896H60.0413ZM60 49.054V60.5487H47.2538L47.0213 57.9642L46.4963 52.1369L46.2188 49.054H60Z" fill="#EBEBEB"/>
    </g>

    <g id="githubSkill">
        <path fill-rule="evenodd" clip-rule="evenodd" d="M44 0C19.69 0 0 19.69 0 44C0 63.47 12.595 79.915 30.085 85.745C32.285 86.13 33.11 84.81 33.11 83.655C33.11 82.61 33.055 79.145 33.055 75.46C22 77.495 19.14 72.765 18.26 70.29C17.765 69.025 15.62 65.12 13.75 64.075C12.21 63.25 10.01 61.215 13.695 61.16C17.16 61.105 19.635 64.35 20.46 65.67C24.42 72.325 30.745 70.455 33.275 69.3C33.66 66.44 34.815 64.515 36.08 63.415C26.29 62.315 16.06 58.52 16.06 41.69C16.06 36.905 17.765 32.945 20.57 29.865C20.13 28.765 18.59 24.255 21.01 18.205C21.01 18.205 24.695 17.05 33.11 22.715C36.63 21.725 40.37 21.23 44.11 21.23C47.85 21.23 51.59 21.725 55.11 22.715C63.525 16.995 67.21 18.205 67.21 18.205C69.63 24.255 68.09 28.765 67.65 29.865C70.455 32.945 72.16 36.85 72.16 41.69C72.16 58.575 61.875 62.315 52.085 63.415C53.68 64.79 55.055 67.43 55.055 71.555C55.055 77.44 55 82.17 55 83.655C55 84.81 55.825 86.185 58.025 85.745C66.7597 82.796 74.3497 77.1822 79.7268 69.6937C85.1039 62.2052 87.9974 53.219 88 44C88 19.69 68.31 0 44 0Z" fill="#FFFEFE"/>
    </g>
    <g id="htmlSkill">
        <path d="M22.1325 102.004L13.7063 7.5H106.294L97.8563 101.989L59.9438 112.5L22.1325 102.004Z" fill="#E44F26"/>
        <path d="M60 104.468L90.6375 95.9738L97.845 15.2288H60V104.468Z" fill="#F1662A"/>
        <path d="M60 50.2763H44.6625L43.605 38.4075H60V26.8163H30.9375L31.215 29.9288L34.0613 61.8675H60V50.2763ZM60 80.3775L59.9475 80.3925L47.04 76.9088L46.215 67.665H34.5787L36.2025 85.86L59.9475 92.4525L60 92.4375V80.3775Z" fill="#EBEBEB"/>
        <path d="M59.9587 50.2763V61.8675H74.2312L72.8887 76.9013L59.9587 80.3888V92.4488L83.7225 85.86L83.895 83.9025L86.6175 53.3888L86.9025 50.2763H59.9587ZM59.9587 26.8163V38.4075H87.9562L88.1887 35.805L88.7175 29.9288L88.995 26.8163H59.9587Z" fill="white"/>
    </g>
    <g id="jsSkill">
        <g id="icon">
            <g id="javascript">
                <path id="Vector" d="M2.25488 0H117.745V120H2.25488V0Z" fill="#F7DF1E"/>
                <path id="Vector_2" d="M32.6201 100.28L41.4582 94.7229C43.1632 97.8641 44.7143 100.522 48.4347 100.522C52.001 100.522 54.2494 99.0723 54.2494 93.4342V55.0913H65.1025V93.5936C65.1025 105.274 58.5134 110.59 48.9 110.59C40.2179 110.59 35.1781 105.918 32.6199 100.28" fill="black"/>
                <path id="Vector_3" d="M71 99.0723L79.837 93.7559C82.1633 97.7033 85.1868 100.603 90.5357 100.603C95.0326 100.603 97.9003 98.2668 97.9003 95.0447C97.9003 91.1782 94.9545 89.8087 89.9929 87.554L87.2803 86.3449C79.4499 82.8818 74.2555 78.5321 74.2555 69.3491C74.2555 60.8912 80.4574 54.4468 90.1483 54.4468C97.048 54.4468 102.01 56.9441 105.575 63.4689L97.125 69.1071C95.2644 65.6437 93.2493 64.2746 90.1485 64.2746C86.9699 64.2746 84.9542 66.3689 84.9542 69.1071C84.9542 72.4904 86.9699 73.8601 91.6209 75.9546L94.334 77.1628C103.56 81.2711 108.754 85.4593 108.754 94.8835C108.754 105.034 101.079 110.591 90.7685 110.591C80.6904 110.591 74.1782 105.597 71.0002 99.0723" fill="black"/>
            </g>
        </g>
    </g>

    <g id="reduxSkill">
        <g id="icon" clip-path="url(#clip0_1_3072)">
            <path id="Vector" d="M83.1473 82.6013C87.5756 82.1428 90.9352 78.3253 90.7823 73.7438C90.63 69.1627 86.812 65.4975 82.2309 65.4975H81.9258C77.1914 65.6503 73.5267 69.6207 73.6795 74.3546C73.8323 76.6453 74.7483 78.6305 76.1227 80.0049C70.9308 90.2368 62.9902 97.7194 51.0792 103.98C42.9858 108.256 34.5872 109.784 26.1886 108.715C19.3167 107.798 13.972 104.745 10.612 99.7046C5.72578 92.2219 5.26781 84.128 9.39093 76.0346C12.2925 70.2314 16.8731 65.9555 19.7747 63.8175C19.1639 61.8324 18.2475 58.4728 17.7895 56.0297C-4.35282 72.0643 -2.06204 93.7491 4.65703 103.98C9.69609 111.616 19.9275 116.35 31.2276 116.35C34.2816 116.35 37.3355 116.045 40.3898 115.282C59.9362 111.464 74.7487 99.8574 83.1473 82.6013ZM110.024 63.6652C98.4178 50.0738 81.315 42.5911 61.7686 42.5911H59.3255C57.9511 39.8424 55.0495 38.0096 51.8428 38.0096H51.5372C46.8037 38.1624 43.1391 42.1327 43.2914 46.8671C43.4442 51.4482 47.2617 55.1133 51.8428 55.1133H52.148C55.5075 54.9605 58.4091 52.8225 59.6306 49.921H62.3794C73.9852 49.921 84.9797 53.2805 94.9059 59.8472C102.541 64.8868 108.038 71.4535 111.092 79.3941C113.688 85.808 113.535 92.0691 110.787 97.4143C106.511 105.508 99.3342 109.936 89.8664 109.936C83.7581 109.936 77.9555 108.104 74.9011 106.729C73.2216 108.256 70.1672 110.7 68.0292 112.227C74.5959 115.281 81.315 116.961 87.7284 116.961C102.388 116.961 113.23 108.867 117.353 100.774C121.782 91.9163 121.476 76.6453 110.024 63.6652ZM32.4492 85.1968C32.602 89.7783 36.4195 93.443 41.0006 93.443H41.3062C46.0401 93.2907 49.7048 89.3199 49.552 84.586C49.3997 80.0044 45.5817 76.3397 41.0006 76.3397H40.6955C40.3898 76.3397 39.9314 76.3397 39.6267 76.4921C33.3656 66.1078 30.7697 54.8077 31.6861 42.5907C32.2964 33.428 35.3508 25.4869 40.6955 18.9202C45.1237 13.2699 53.6751 10.5211 59.4783 10.3688C75.6647 10.0632 82.5361 30.2208 82.9945 38.3147C84.9797 38.7727 88.3392 39.8419 90.63 40.6055C88.7972 15.8668 73.5267 3.03894 58.8675 3.03894C45.1237 3.03894 32.4492 12.9652 27.4097 27.6253C20.3855 47.1722 24.9666 65.9555 33.518 80.7685C32.7548 81.8372 32.2964 83.5172 32.4492 85.1972V85.1968Z" fill="#764ABC"/>
        </g>
        <defs>
            <clipPath id="clip0_1_3072">
                <rect width="120" height="120" fill="white"/>
            </clipPath>
        </defs>
    </g>

    <g id="reactjsSkill">
        <rect width="120" height="120" fill="#F5F5F5"/>
        <g id="spa-dark">
            <rect width="1440" height="3474" transform="translate(-910 -2478)" fill="#041F31"/>
            <g id="skills">
                <g id="react js">
                    <g id="icon">
                        <g id="react">
                            <path id="Vector" d="M0 59.7974C0 69.273 8.84919 78.1189 22.8007 83.1049C20.0147 97.7701 22.3014 109.59 29.9391 114.196C37.79 118.93 49.4858 115.653 60.5867 105.507C71.4076 115.243 82.3439 119.075 89.9746 114.456C97.8178 109.709 100.203 97.087 97.3404 81.964C111.872 76.9405 120 69.3977 120 59.7974C120 50.5414 111.134 42.5338 97.3711 37.5796C100.453 21.8316 97.8416 10.2984 89.8877 5.50237C82.2193 0.878721 71.156 4.9087 60.176 14.9001C48.7532 4.29502 37.799 1.05714 29.8528 5.86712C22.1918 10.5039 20.0057 22.5388 22.8007 37.4756C9.32028 42.39 0 50.5784 0 59.7974Z" fill="white"/>
                            <path id="Vector_2" d="M94.4565 42.4993C93.351 42.1014 92.2054 41.7249 91.0259 41.3689C91.2198 40.5416 91.3977 39.725 91.5559 38.9223C94.1528 25.7416 92.4549 15.1232 86.6569 11.6271C81.0973 8.27488 72.005 11.7701 62.8223 20.1261C61.9393 20.9296 61.0538 21.7803 60.1687 22.6718C59.5789 22.0819 58.9901 21.5119 58.4028 20.9666C48.779 12.032 39.1327 8.26675 33.3404 11.7729C27.7861 15.1349 26.1413 25.1172 28.4789 37.6087C28.7046 38.8152 28.9685 40.0473 29.2669 41.3001C27.9016 41.7053 26.5836 42.1373 25.3226 42.5969C14.0397 46.71 6.83398 53.1562 6.83398 59.8427C6.83398 66.7485 14.5693 73.6751 26.3213 77.8751C27.2487 78.2065 28.211 78.5199 29.2028 78.8174C28.8808 80.1723 28.6009 81.5 28.3658 82.7951C26.1369 95.0697 27.8776 104.816 33.417 108.157C39.1388 111.607 48.7415 108.061 58.0921 99.5144C58.8311 98.8389 59.5729 98.1224 60.3159 97.3715C61.279 98.3412 62.2405 99.259 63.197 100.12C72.2541 108.269 81.1995 111.56 86.7339 108.21C92.4499 104.75 94.3076 94.2799 91.8958 81.5413C91.7116 80.5684 91.4973 79.5745 91.2566 78.5629C91.9309 78.3545 92.593 78.1393 93.2385 77.9155C105.456 73.683 113.405 66.8407 113.405 59.8427C113.405 53.132 105.967 46.6423 94.4565 42.4993Z" fill="#53C1DE"/>
                            <path id="Vector_3" d="M91.8052 73.3971C91.2225 73.5988 90.6246 73.7938 90.0153 73.9828C88.6665 69.5183 86.8462 64.7708 84.6187 59.8659C86.7444 55.0779 88.4943 50.3912 89.8053 45.9555C90.8955 46.2854 91.9536 46.6333 92.9732 47.0004C102.835 50.5502 108.851 55.7987 108.851 59.8427C108.851 64.1504 102.354 69.7424 91.8052 73.3971ZM87.4282 82.4659C88.4947 88.0987 88.647 93.1914 87.9406 97.1726C87.3059 100.75 86.0294 103.135 84.4512 104.09C81.0926 106.123 73.9104 103.481 66.1646 96.5114C65.2766 95.7124 64.3822 94.8593 63.485 93.9565C66.4878 90.5225 69.489 86.5304 72.4181 82.0968C77.57 81.6188 82.4374 80.8373 86.8514 79.7704C87.0688 80.6873 87.2619 81.5866 87.4282 82.4659ZM43.1649 103.739C39.8836 104.951 37.2702 104.985 35.6904 104.033C32.3288 102.006 30.9313 94.1802 32.8376 83.6829C33.0559 82.4808 33.3158 81.2459 33.6153 79.9836C37.9809 80.993 42.8126 81.7193 47.9769 82.1571C50.9257 86.4955 54.0135 90.4832 57.1253 93.9749C56.4454 94.6612 55.7682 95.3145 55.0948 95.9302C50.96 99.7093 46.8165 102.391 43.1649 103.739ZM27.7923 73.3707C22.5958 71.5136 18.3043 69.0999 15.3627 66.4661C12.7195 64.0992 11.385 61.7494 11.385 59.8427C11.385 55.7852 17.1705 50.6097 26.8197 47.0921C27.9905 46.6652 29.2161 46.263 30.488 45.8851C31.8216 50.4209 33.5709 55.1632 35.682 59.9586C33.5436 64.8252 31.7694 69.643 30.4228 74.2319C29.516 73.9594 28.6375 73.6726 27.7923 73.3707ZM32.9453 36.6946C30.9425 25.9922 32.2726 17.9188 35.6198 15.8928C39.1851 13.7346 47.069 16.8118 55.3784 24.5264C55.9095 25.0195 56.4428 25.5356 56.9775 26.0696C53.8811 29.546 50.8215 33.5038 47.8989 37.8166C42.8868 38.3024 38.0891 39.0827 33.6779 40.1276C33.4006 38.9611 33.1549 37.815 32.9453 36.6946ZM78.9151 48.5634C77.8606 46.6589 76.778 44.7994 75.6744 42.9907C79.0746 43.4401 82.3325 44.0368 85.3919 44.7669C84.4734 47.8448 83.3285 51.063 81.981 54.362C81.0143 52.4431 79.9918 50.5082 78.9151 48.5634ZM60.1687 29.4716C62.2687 31.8504 64.3716 34.5062 66.44 37.3878C64.3557 37.2849 62.2455 37.2313 60.1179 37.2313C58.0104 37.2313 55.9158 37.2837 53.8443 37.3848C55.9148 34.53 58.036 31.8777 60.1687 29.4716ZM41.3023 48.5963C40.2489 50.5062 39.2454 52.4306 38.2939 54.3585C36.9682 51.0709 35.834 47.8381 34.9075 44.7165C37.9481 44.005 41.1906 43.4233 44.5692 42.9823C43.45 44.8077 42.3585 46.6809 41.3023 48.5959V48.5963ZM44.6665 77.0427C41.1758 76.6355 37.8846 76.0837 34.8447 75.3919C35.786 72.2146 36.9452 68.9127 38.2991 65.5543C39.253 67.4808 40.2605 69.406 41.3203 71.32H41.3205C42.4001 73.27 43.5185 75.18 44.6665 77.0427ZM60.2947 90.5495C58.1369 88.1152 55.9846 85.4224 53.8826 82.526C55.9232 82.6097 58.0036 82.6525 60.1179 82.6525C62.2901 82.6525 64.4374 82.6014 66.551 82.503C64.4758 85.4516 62.3804 88.1485 60.2947 90.5495ZM82.0244 65.3831C83.4488 68.7778 84.6496 72.0624 85.603 75.1856C82.513 75.9227 79.1769 76.5163 75.6618 76.9574C76.7682 75.1243 77.8602 73.2329 78.9333 71.2873C80.019 69.3189 81.0497 67.3476 82.0244 65.3831ZM74.9898 68.9091C73.3239 71.9294 71.6136 74.8125 69.8773 77.534C66.7149 77.7704 63.4478 77.8922 60.1179 77.8922C56.8015 77.8922 53.5755 77.7845 50.4691 77.5737C48.6628 74.8165 46.9154 71.9248 45.2601 68.9351H45.2605C43.6096 65.9536 42.0901 62.9469 40.7133 59.957C42.0897 56.9602 43.6052 53.9501 45.2466 50.9739L45.2462 50.9745C46.892 47.9904 48.6241 45.1128 50.4137 42.3728C53.5831 42.1223 56.8332 41.9916 60.1177 41.9916H60.1179C63.4173 41.9916 66.6715 42.1233 69.8399 42.376C71.6022 45.0959 73.3225 47.9642 74.9748 50.9487C76.6458 53.9667 78.1808 56.9568 79.569 59.8894C78.185 62.8723 76.6534 65.8925 74.9898 68.9091ZM84.3813 15.7512C87.9501 17.9031 89.3379 26.5815 87.0957 37.9616C86.9527 38.6878 86.7916 39.4274 86.6167 40.1769C82.1953 39.1102 77.3941 38.3165 72.3674 37.8234C69.4391 33.4631 66.4046 29.4992 63.3586 26.0674C64.1776 25.2437 64.9953 24.4582 65.8097 23.717C73.6775 16.5577 81.031 13.7311 84.3813 15.7512Z" fill="white"/>
                            <path id="Vector_4" d="M60.1182 49.8923C65.3739 49.8923 69.6346 54.3472 69.6346 59.8428C69.6346 65.3381 65.3739 69.7932 60.1182 69.7932C54.8625 69.7932 50.6018 65.3381 50.6018 59.8428C50.6018 54.3472 54.8625 49.8923 60.1182 49.8923Z" fill="#53C1DE"/>
                        </g>
                    </g>
                </g>
            </g>
        </g>
    </g>

    <g id="stcSkill">
        <g id="icon" clip-path="url(#clip0_1_3059)">
            <g id="Group">
                <path id="Vector" d="M68.7673 118.279C68.9473 117.872 69.4015 117.589 69.7315 117.246C74.7666 111.967 79.8446 106.735 84.8111 101.391C86.3653 99.9558 87.5662 98.1804 88.32 96.2036C89.0739 94.2269 89.3601 92.1026 89.1563 89.9968C89.0004 89.0951 88.7958 88.2025 88.5435 87.3229C87.1894 88.6084 85.9296 89.7783 84.6611 90.9567C82.6899 92.7908 80.7273 94.6334 78.739 96.4461C77.5665 97.6415 76.059 98.4531 74.4156 98.7737C72.7721 99.0943 71.0701 98.9087 69.5344 98.2416C67.9797 97.6705 66.627 96.6553 65.6443 95.3221C64.6616 93.9889 64.092 92.3965 64.0064 90.7425C63.9604 90.5297 63.8988 90.3206 63.8222 90.1168C62.3095 91.4024 60.8611 92.5851 59.4256 93.8021L29.5877 119.085C29.382 119.261 29.1591 119.479 28.9663 119.65H68.7459L68.6859 119.612C68.4716 119.462 68.583 118.673 68.7673 118.279Z" fill="#FFCEBF"/>
                <path id="Vector_2" d="M27.1436 118.279C27.4974 117.818 27.9245 117.418 28.4077 117.096L69.7 82.0642C72.5168 79.6731 75.3207 77.2691 78.1118 74.8522C78.4567 74.6118 78.727 74.2791 78.8918 73.8924C79.5594 70.9831 79.654 67.9717 79.1703 65.0263C78.7418 65.3262 78.5104 65.4548 78.3132 65.6648C74.9322 68.6901 71.5683 71.7412 68.1702 74.7494C67.0445 75.8824 65.5885 76.6292 64.0116 76.8825C62.4346 77.1359 60.818 76.8826 59.3941 76.1592C57.9414 75.4734 56.7256 74.3709 55.9014 72.992C55.0773 71.6131 54.682 70.0201 54.766 68.4159V67.0275C54.1447 67.4817 53.6905 67.7859 53.2662 68.1287C36.7396 81.3615 20.2159 94.5842 3.69496 107.797C2.94933 108.393 2.05801 109.721 1.08098 108.431C0.103957 107.141 1.59092 106.61 2.34083 106.01C19.953 91.8774 37.5738 77.7576 55.2031 63.6507C58.0742 61.3496 58.2628 60.3854 56.3944 56.7301L55.2803 57.7757C52.2249 60.6168 49.1353 63.4193 46.1271 66.3075C44.8931 67.4978 43.3476 68.3148 41.6691 68.6641C39.9906 69.0135 38.2476 68.8809 36.6412 68.2818C35.0348 67.6827 33.6306 66.6415 32.5908 65.2784C31.5509 63.9153 30.9178 62.2858 30.7646 60.5782C30.1947 61.0067 29.7019 61.3196 29.2348 61.6838L3.09503 81.9443C2.64419 82.3864 2.13005 82.7591 1.5695 83.0498C1.14643 83.1777 0.692134 83.155 0.283936 82.9856V119.671H27.0922C26.9925 119.451 26.9453 119.21 26.9542 118.969C26.9631 118.727 27.028 118.491 27.1436 118.279Z" fill="#FFCEBF"/>
                <path id="Vector_3" d="M99.5652 1.82096C98.8367 4.20782 98.1297 6.59897 97.4912 9.01154C96.9014 10.7164 96.97 12.5802 97.6836 14.2371C98.3971 15.8941 99.704 17.2246 101.348 17.9676C106.376 20.6107 112.042 21.798 117.709 21.3958V2.22806C117.646 1.80781 117.669 1.37914 117.777 0.968207C117.897 0.73576 118.049 0.520916 118.227 0.329712H99.5481C99.8352 0.663958 99.7366 1.25103 99.5652 1.82096Z" fill="#FF6196"/>
                <path id="Vector_4" d="M62.051 42.9976C61.9621 45.137 61.2137 47.1966 59.9084 48.894C55.2418 54.9179 49.8828 60.3719 43.9417 65.1435C42.9836 66.0304 41.7693 66.591 40.4728 66.745C39.1764 66.8989 37.8646 66.6383 36.7254 66.0005C35.5916 65.5161 34.6356 64.6925 33.9887 63.6428C33.3419 62.5932 33.036 61.369 33.113 60.1384C33.2502 58.627 33.8777 57.202 34.8999 56.0803C41.5434 49.7455 48.7414 44.019 56.4074 38.9695C56.9094 38.5758 57.5226 38.3499 58.1601 38.3237C58.7976 38.2976 59.4272 38.4725 59.9598 38.8238C60.6598 39.2585 61.2258 39.8786 61.5949 40.6153C61.9641 41.352 62.1219 42.1766 62.051 42.9976Z" fill="#FF87AF"/>
                <path id="Vector_5" d="M56.9126 68.97C56.8131 68.0228 56.9347 67.0654 57.2678 66.1731C57.6009 65.2809 58.1365 64.478 58.8324 63.8277C65.3372 57.8281 72.3163 52.3638 79.7013 47.4883C79.9241 47.3468 80.1298 47.2054 80.3741 47.0597C81.0192 46.594 81.8008 46.356 82.5959 46.3832C83.3911 46.4103 84.1546 46.7011 84.7664 47.2097C85.3584 47.7112 85.7772 48.3865 85.9634 49.1396C86.1496 49.8928 86.0936 50.6854 85.8034 51.4049C84.8691 54.5168 83.1448 57.3337 80.7983 59.5811C76.0329 64.2758 71.1753 68.8762 66.2286 73.3795C65.4836 74.1456 64.5051 74.6422 63.4469 74.7911C62.3888 74.9401 61.3111 74.7329 60.3836 74.2022C59.409 73.6958 58.5791 72.9499 57.9719 72.0347C57.3648 71.1194 57.0002 70.0648 56.9126 68.97Z" fill="#FF87AF"/>
                <path id="Vector_6" d="M87.8344 71.8015C86.6346 73.0871 85.4004 74.3126 84.2477 75.6282C83.9011 76.1367 83.6136 76.683 83.3907 77.2566C84.0249 77.4451 84.7662 77.9422 85.2804 77.7665C87.8987 76.888 90.4527 75.8339 93.3281 74.724C92.7024 76.1638 92.231 77.4922 91.5668 78.7092C88.8305 83.3078 85.4038 87.4587 81.4066 91.0164C79.8868 92.4819 78.3084 93.8832 76.6715 95.2201C75.8046 95.9395 74.7622 96.4157 73.6509 96.6001C72.5396 96.7844 71.3992 96.6702 70.3465 96.2692C69.2938 95.8681 68.3665 95.1947 67.6595 94.3176C66.9525 93.4406 66.4912 92.3916 66.3227 91.2778C66.254 90.6585 66.3087 90.0317 66.4838 89.4337C66.6589 88.8357 66.9507 88.2784 67.3426 87.7939C73.174 81.4614 79.8384 75.9503 87.1531 71.4115C87.242 71.3771 87.3363 71.3582 87.4316 71.3558L87.8344 71.8015Z" fill="#FF87AF"/>
                <path id="Vector_7" d="M97.6724 54.7335L105.004 22.1659L110.147 23.37L107.494 31.4305C105.017 38.9296 102.51 46.4287 100.093 53.9364C99.6221 55.3248 99.0051 55.5819 97.6724 54.7335Z" fill="#FF6196"/>
                <path id="Vector_8" d="M89.3857 73.8885C90.1614 70.9274 90.9327 68.1892 91.5841 65.421C92.2189 62.7364 93.4263 60.2207 95.1236 58.0461C96.1649 56.6791 97.3348 57.2234 98.5304 57.519C99.636 57.789 99.9145 58.5989 99.9616 59.6616C100.136 62.6005 99.241 65.5031 97.4419 67.8335C95.3002 70.4887 92.5317 72.5695 89.3857 73.8885Z" fill="#FF6196"/>
                <path id="Vector_9" d="M119.944 3.83936C120.008 2.88498 119.983 1.92674 119.871 0.976845C119.783 0.711516 119.607 0.483621 119.374 0.329779C119.184 0.175101 118.961 0.0652523 118.723 0.00838844C118.585 -0.0173228 118.393 0.124089 118.208 0.325493C118.03 0.516698 117.878 0.731542 117.758 0.96399C117.65 1.37492 117.627 1.80359 117.69 2.22384V21.3873C112.023 21.7895 106.357 20.6022 101.329 17.9591C99.685 17.2161 98.3781 15.8856 97.6646 14.2286C96.951 12.5717 96.8824 10.7079 97.4722 9.00304C98.1107 6.59046 98.8178 4.19932 99.5462 1.81246C99.7177 1.24253 99.8162 0.655454 99.5462 0.321208C99.3961 0.158494 99.1888 0.0602123 98.9677 0.0469556C98.6847 0.0500088 98.4105 0.146413 98.1878 0.321208C97.8674 0.512888 97.6121 0.796593 97.4551 1.1354C96.598 3.70652 95.8438 6.30336 95.1882 8.9259C94.9407 9.95936 94.874 11.0279 94.9911 12.0841C95.1569 13.9952 95.8676 15.8186 97.0389 17.3377C98.2102 18.8569 99.7928 20.0081 101.599 20.6545C102.409 20.993 102.884 21.3273 102.657 22.3943C102.344 23.7484 102.04 25.1026 101.732 26.461C99.632 35.6656 97.5436 44.8745 95.4667 54.0877C95.4082 54.4985 95.2275 54.8822 94.9482 55.189C93.5793 56.2771 92.4291 57.6148 91.5586 59.1314C90.4493 61.1327 89.6817 63.3052 89.2875 65.5592C89.2118 66.2782 88.952 66.9655 88.5331 67.5548C88.1143 68.144 87.5505 68.6153 86.8963 68.9231C85.1094 69.8273 83.4682 70.9971 81.4841 72.2141C81.6164 69.8282 81.5906 67.4361 81.407 65.0535C81.256 64.3206 81.288 63.5618 81.5003 62.8442C81.7126 62.1267 82.0985 61.4725 82.624 60.9397C85.2375 58.3506 87.1005 55.1015 88.0148 51.538C88.2878 50.712 88.3627 49.8333 88.2333 48.9729C88.104 48.1126 87.774 47.2948 87.27 46.5856C86.7661 45.8764 86.1023 45.2957 85.3325 44.8905C84.5626 44.4853 83.7081 44.267 82.8382 44.2531C81.4298 44.2374 80.047 44.6304 78.8573 45.3844C74.7683 48.1767 70.7504 51.0715 66.8073 54.0663C64.4633 55.8318 62.2564 57.7858 59.9852 59.637C59.8873 59.5319 59.8025 59.4154 59.7324 59.2899C59.689 58.9744 59.604 58.6661 59.4796 58.3729C57.5812 55.4418 58.8968 53.3121 60.958 51.1223C63.1053 48.8714 64.2919 45.8727 64.2661 42.7619C64.3327 41.1769 63.8363 39.6194 62.8649 38.3653C62.3474 37.7286 61.7096 37.2001 60.988 36.8097C59.9629 36.2487 58.7908 36.0145 57.6289 36.1386C56.467 36.2627 55.3708 36.7391 54.4873 37.5039L53.2917 38.361C50.5621 40.315 47.7981 42.2177 45.1713 44.3089C41.3364 47.3705 37.5841 50.5341 33.9183 53.7963C32.2042 55.309 30.953 57.3744 29.1746 58.78C19.9014 66.1034 10.5297 73.294 1.1922 80.5317C0.871132 80.7232 0.575909 80.9551 0.313735 81.2216C0.286745 81.2606 0.263774 81.3023 0.245172 81.3459C0.0480521 81.8044 -0.119071 82.5629 0.112331 82.8414C0.169054 82.9019 0.23761 82.95 0.313735 82.9828C0.721934 83.1523 1.17623 83.175 1.5993 83.0471C2.15985 82.7563 2.67399 82.3837 3.12483 81.9415L29.2646 61.6811C29.7317 61.3168 30.2245 60.9869 30.7944 60.5755C30.9476 62.2831 31.5807 63.9125 32.6206 65.2757C33.6604 66.6388 35.0646 67.68 36.671 68.2791C38.2774 68.8782 40.0204 69.0107 41.6989 68.6614C43.3774 68.312 44.9229 67.4951 46.1569 66.3048C49.1565 63.4166 52.2547 60.6141 55.3101 57.773L56.4242 56.7274C58.2926 60.3827 58.104 61.3468 55.2329 63.648C37.5893 77.7663 19.9585 91.8875 2.34064 106.012C1.59073 106.611 0.108046 107.156 1.08079 108.433C2.05353 109.71 2.94914 108.394 3.69476 107.798C20.2242 94.5972 36.7423 81.3787 53.2489 68.1432C53.6774 67.8003 54.1273 67.4961 54.7487 67.0419V68.4303C54.6647 70.0345 55.0599 71.6275 55.8841 73.0064C56.7082 74.3853 57.924 75.4879 59.3767 76.1736C60.8007 76.897 62.4173 77.1503 63.9942 76.897C65.5711 76.6436 67.0271 75.8968 68.1528 74.7638C71.551 71.7642 74.9149 68.7045 78.2959 65.6792C78.5102 65.4863 78.7587 65.3406 79.153 65.0407C79.6367 67.9861 79.542 70.9975 78.8744 73.9068C78.7096 74.2936 78.4394 74.6262 78.0945 74.8667C75.3005 77.2807 72.4966 79.6847 69.6826 82.0787L28.4075 117.115C27.9243 117.437 27.4972 117.836 27.1434 118.297C27.0305 118.507 26.9672 118.741 26.9582 118.979C26.9493 119.217 26.9951 119.455 27.092 119.673C27.2856 119.818 27.5094 119.917 27.7468 119.964C27.9842 120.011 28.2291 120.004 28.4633 119.943C28.648 119.889 28.8181 119.794 28.9603 119.664C29.1746 119.493 29.3889 119.274 29.5817 119.099L59.4196 93.8158C60.8551 92.5988 62.3035 91.399 63.8162 90.1306C63.8928 90.3343 63.9544 90.5434 64.0005 90.7562C64.0861 92.4102 64.6556 94.0027 65.6383 95.3358C66.6211 96.669 67.9737 97.6842 69.5284 98.2553C71.0641 98.9225 72.7662 99.108 74.4096 98.7874C76.053 98.4669 77.5606 97.6552 78.733 96.4598C80.7213 94.6472 82.684 92.8045 84.6552 90.9705C85.9407 89.792 87.1834 88.6093 88.5376 87.3366C88.7898 88.2162 88.9944 89.1089 89.1503 90.0106C89.3473 92.1094 89.0578 94.2253 88.3042 96.1941C87.5506 98.1628 86.3532 99.9313 84.8051 101.362C79.8386 106.71 74.7606 111.942 69.7255 117.217C69.3955 117.56 68.9413 117.843 68.7613 118.25C68.5813 118.657 68.4657 119.454 68.6799 119.626L68.7399 119.664C69.1892 119.883 69.6945 119.959 70.1883 119.883C70.3267 119.854 70.45 119.777 70.5354 119.664C70.6554 119.54 70.7711 119.386 70.8868 119.27C74.9663 115.053 79.0672 110.858 83.1168 106.611C84.7513 104.955 86.288 103.205 87.7191 101.371C89.5851 99.3049 90.8224 96.7492 91.2855 94.0042C91.7486 91.2591 91.4181 88.439 90.3331 85.8754C90.2164 85.3037 90.3304 84.7092 90.6502 84.2213C90.9287 83.7413 91.2372 83.2742 91.5543 82.8114C92.569 81.494 93.4141 80.0544 94.0698 78.5262C95.3368 74.7758 97.2817 71.2898 99.8076 68.2417C100.969 66.7695 101.768 65.0448 102.14 63.207C102.512 61.3692 102.447 59.4696 101.95 57.6616C101.775 56.9741 101.775 56.2535 101.95 55.5661C104.119 48.8512 106.351 42.1577 108.562 35.4599L111.519 26.4867L112.432 23.7142C114.377 23.7142 116.211 23.6756 118.037 23.7142C119.554 23.757 120.017 23.0457 120 21.5715C119.91 15.658 119.944 9.74866 119.944 3.83936ZM43.9371 65.1435C42.9791 66.0304 41.7647 66.591 40.4683 66.745C39.1719 66.8989 37.86 66.6383 36.7208 66.0006C35.587 65.5162 34.631 64.6925 33.9842 63.6429C33.3373 62.5932 33.0314 61.369 33.1084 60.1384C33.2457 58.6271 33.8732 57.202 34.8953 56.0803C41.5388 49.7455 48.7368 44.019 56.4028 38.9695C56.8212 38.6737 57.2972 38.4693 57.7998 38.3696C58.1369 38.3074 58.4825 38.3074 58.8196 38.3696C59.2234 38.4482 59.6086 38.6023 59.9552 38.8238C60.656 39.2588 61.2224 39.8796 61.5916 40.6171C61.9607 41.3547 62.1182 42.1802 62.0464 43.0019C61.9576 45.1413 61.2092 47.2009 59.9038 48.8983C55.237 54.9207 49.878 60.3733 43.9371 65.1435ZM66.2202 73.4097C65.4752 74.1758 64.4966 74.6724 63.4385 74.8213C62.3803 74.9703 61.3027 74.7631 60.3752 74.2324C59.3988 73.7249 58.5678 72.977 57.9605 72.0593C57.3533 71.1416 56.9897 70.0844 56.9042 68.9874C56.8047 68.0401 56.9263 67.0828 57.2594 66.1905C57.5925 65.2982 58.1281 64.4954 58.8239 63.8451C65.3288 57.8454 72.3078 52.3811 79.6929 47.5056C79.9157 47.3642 80.1214 47.2228 80.3657 47.0771C81.0107 46.6114 81.7923 46.3734 82.5875 46.4005C83.3826 46.4277 84.1462 46.7185 84.758 47.2271C85.35 47.7285 85.7688 48.4038 85.955 49.157C86.1412 49.9101 86.0852 50.7028 85.795 51.4223C84.8607 54.5342 83.1364 57.351 80.7899 59.5985C76.0633 64.3208 71.1482 68.8674 66.2288 73.3925L66.2202 73.4097ZM91.5501 78.7276C88.8175 83.319 85.3967 87.4638 81.407 91.0176C79.8872 92.4831 78.3088 93.8844 76.6718 95.2214C75.8049 95.9408 74.7625 96.417 73.6512 96.6013C72.5399 96.7856 71.3996 96.6714 70.3469 96.2704C69.2942 95.8694 68.3669 95.1959 67.6599 94.3189C66.9529 93.4419 66.4915 92.3928 66.323 91.279C66.2543 90.6597 66.3091 90.0329 66.4842 89.435C66.6592 88.837 66.9511 88.2796 67.3429 87.7951C73.1743 81.4627 79.8387 75.9515 87.1534 71.4128C87.2424 71.3783 87.3366 71.3594 87.432 71.3571L87.8605 71.7856C86.6606 73.0712 85.4265 74.2967 84.2738 75.6123C83.9272 76.1208 83.6396 76.6671 83.4167 77.2407C84.0509 77.4292 84.7923 77.9263 85.3065 77.7506C87.3763 77.0564 89.4117 76.2508 91.5929 75.3937L93.3541 74.7081C92.6942 76.1651 92.2228 77.4935 91.5586 78.7105L91.5501 78.7276ZM97.4336 67.8646C95.8352 69.8996 93.8317 71.5806 91.5501 72.8012C90.8444 73.1954 90.1202 73.564 89.3775 73.9068C90.1402 70.9885 90.903 68.2846 91.5501 65.5506L91.5758 65.4392C92.2106 62.7546 93.418 60.2389 95.1153 58.0644C96.1566 56.6974 97.3265 57.2416 98.5221 57.5373C99.6277 57.8073 99.9062 58.6172 99.9533 59.6799C100.129 62.6162 99.2372 65.5171 97.4422 67.8475L97.4336 67.8646ZM107.461 31.4404C104.984 38.9395 102.477 46.4386 100.06 53.9463C99.6062 55.3561 98.9892 55.6132 97.6565 54.7648L104.011 26.5124L104.988 22.1758L110.131 23.3799L109.098 26.5124L107.461 31.4404Z" fill="black"/>
            </g>
        </g>
        <defs>
            <clipPath id="clip0_1_3059">
                <rect width="120" height="120" fill="white"/>
            </clipPath>
        </defs>
    </g>

    <g id="tsSkill">
        <g id="icon">
            <g id="tyoescruipt">
                <path id="Vector" d="M0 60V120H60H120V60V0H60H0V60Z" fill="#007ACC"/>
                <path id="Vector_2" d="M26.5373 60.3979L26.4992 65.3122H34.3087H42.1182L42.1182 87.5026V109.693H47.6421H53.1659V87.5026L53.1659 65.3122H60.9754H68.7849V60.4931C68.7849 57.8264 68.7278 55.5979 68.6516 55.5407C68.5944 55.4645 59.0897 55.4264 47.5659 55.4455L26.5944 55.5026L26.5373 60.3979Z" fill="white"/>
                <path id="Vector_3" d="M96.8265 55.3636C99.8741 56.1255 102.198 57.4779 104.331 59.6874C105.436 60.8684 107.074 63.0208 107.207 63.535C107.246 63.6874 102.026 67.1922 98.8646 69.1541C98.7503 69.2303 98.2931 68.7351 97.7789 67.9731C96.236 65.7255 94.6169 64.7541 92.1408 64.5827C88.5027 64.335 86.1598 66.2398 86.1789 69.4208C86.1789 70.3541 86.3122 70.9065 86.6931 71.6684C87.4931 73.3255 88.9789 74.316 93.6455 76.3351C102.236 80.0303 105.912 82.4684 108.198 85.935C110.75 89.8017 111.322 95.9731 109.588 100.564C107.684 105.554 102.96 108.945 96.3122 110.068C94.255 110.43 89.3789 110.373 87.1693 109.973C82.3503 109.116 77.7789 106.735 74.9598 103.611C73.855 102.392 71.7027 99.2112 71.836 98.9827C71.8931 98.9065 72.3884 98.6017 72.9408 98.2779C73.4741 97.9731 75.4931 96.8112 77.3979 95.7065L80.8455 93.7065L81.5693 94.7731C82.5789 96.316 84.7884 98.4303 86.1217 99.135C89.9503 101.154 95.2074 100.868 97.7979 98.5446C98.9027 97.535 99.3598 96.4874 99.3598 94.9446C99.3598 93.5541 99.1884 92.9446 98.4646 91.897C97.5312 90.5636 95.6265 89.4398 90.2169 87.097C84.0265 84.4303 81.3598 82.7731 78.9217 80.1446C77.5122 78.6208 76.1789 76.1827 75.6265 74.1446C75.1693 72.4493 75.055 68.2017 75.4169 66.4874C76.6931 60.5065 81.2074 56.335 87.7217 55.097C89.836 54.697 94.7503 54.8493 96.8265 55.3636Z" fill="white"/>
            </g>
        </g>
    </g>



<g id="logo">
    <g>
        <g>
            <path style="fill:#010002;" d="M153.821,358.226L0,274.337v-46.463l153.821-83.414v54.574L46.636,250.523l107.185,53.431
			C153.821,303.954,153.821,358.226,153.821,358.226z"/>
            <path style="fill:#010002;" d="M180.094,387.584L282.103,115.08h32.227L212.084,387.584H180.094z"/>
            <path style="fill:#010002;" d="M348.843,358.226v-54.272l107.164-52.999l-107.164-52.59v-53.927l153.821,83.522v46.183
			L348.843,358.226z"/>
        </g>
        <g>
        </g>
        <g>
        </g>
        <g>
        </g>
        <g>
        </g>
        <g>
        </g>
        <g>
        </g>
        <g>
        </g>
        <g>
        </g>
        <g>
        </g>
        <g>
        </g>
        <g>
        </g>
        <g>
        </g>
        <g>
        </g>
        <g>
        </g>
        <g>
        </g>
    </g>
</g>

</svg>
